<svg width="22" height="22" viewBox="0 0 22 22" fill="none" xmlns="http://www.w3.org/2000/svg">
<g clip-path="url(#clip0_1305_1955)">
<path d="M0 0H21.9454V11.8763L20.8591 13.5777L21.9454 15.092V22H0V10.8043L0.678898 10.0217L0 9.27301V0Z" fill="#016FD0"/>
<path d="M4.26001 15.33V11.876H7.90806L8.29945 12.3875L8.70379 11.876H21.9453V15.0918C21.9453 15.0918 21.599 15.3265 21.1985 15.33H13.8664L13.4251 14.7855V15.33H11.9791V14.4005C11.9791 14.4005 11.7815 14.5303 11.3545 14.5303H10.8623V15.33H8.67284L8.28201 14.8075L7.88517 15.33H4.26001Z" fill="white"/>
<path d="M0 9.27275L0.822649 7.3501H2.24533L2.7122 8.42709V7.3501H4.48073L4.75865 8.12852L5.02809 7.3501H12.9669V7.74144C12.9669 7.74144 13.3843 7.3501 14.0702 7.3501L16.646 7.35912L17.1048 8.42202V7.3501H18.5848L18.9922 7.96065V7.3501H20.4857V10.8041H18.9922L18.6018 10.1915V10.8041H16.4274L16.2087 10.2596H15.6241L15.409 10.8041H13.9344C13.3442 10.8041 12.9669 10.4207 12.9669 10.4207V10.8041H10.7436L10.3023 10.2596V10.8041H2.03457L1.81605 10.2596H1.23335L1.01638 10.8041H0V9.27275Z" fill="white"/>
<path d="M1.11372 7.77588L0.00415039 10.3621H0.72654L0.93127 9.84423H2.12146L2.32513 10.3621H3.06343L1.95492 7.77588H1.11372ZM1.52424 8.37777L1.88703 9.28275H1.1604L1.52424 8.37777Z" fill="#016FD0"/>
<path d="M3.13989 10.3616V7.77539L4.16645 7.77921L4.76353 9.44665L5.34631 7.77539H6.36466V10.3616H5.7197V8.45598L5.03604 10.3616H4.47042L3.78485 8.45598V10.3616H3.13989Z" fill="#016FD0"/>
<path d="M6.80591 10.3616V7.77539H8.91049V8.35389H7.45765V8.79627H8.87655V9.34074H7.45765V9.80014H8.91049V10.3616H6.80591Z" fill="#016FD0"/>
<path d="M9.28394 7.77588V10.3621H9.92889V9.44332H10.2004L10.9738 10.3621H11.7619L10.9133 9.40929C11.2616 9.37983 11.6208 9.08016 11.6208 8.61492C11.6208 8.07068 11.1947 7.77588 10.7192 7.77588H9.28394ZM9.92889 8.35438H10.6661C10.843 8.35438 10.9716 8.49306 10.9716 8.62661C10.9716 8.79843 10.8049 8.89885 10.6757 8.89885H9.92889V8.35438Z" fill="#016FD0"/>
<path d="M12.5426 10.3616H11.884V7.77539H12.5426V10.3616Z" fill="#016FD0"/>
<path d="M14.1042 10.3616H13.962C13.2743 10.3616 12.8567 9.81843 12.8567 9.07914C12.8567 8.32159 13.2696 7.77539 14.1381 7.77539H14.851V8.38792H14.112C13.7595 8.38792 13.5101 8.66375 13.5101 9.08552C13.5101 9.58638 13.7952 9.79674 14.206 9.79674H14.3757L14.1042 10.3616Z" fill="#016FD0"/>
<path d="M15.5075 7.77588L14.3979 10.3621H15.1203L15.3251 9.84423H16.5153L16.7189 10.3621H17.4572L16.3487 7.77588H15.5075ZM15.918 8.37777L16.2808 9.28275H15.5542L15.918 8.37777Z" fill="#016FD0"/>
<path d="M17.5325 10.3616V7.77539H18.3525L19.3994 9.4003V7.77539H20.0444V10.3616H19.2509L18.1774 8.69418V10.3616H17.5325Z" fill="#016FD0"/>
<path d="M4.70142 14.8875V12.3013H6.806V12.8798H5.35316V13.3222H6.77205V13.8666H5.35316V14.326H6.806V14.8875H4.70142Z" fill="#016FD0"/>
<path d="M15.0139 14.8875V12.3013H17.1185V12.8798H15.6657V13.3222H17.0778V13.8666H15.6657V14.326H17.1185V14.8875H15.0139Z" fill="#016FD0"/>
<path d="M6.88768 14.8875L7.91239 13.6103L6.86328 12.3013H7.67584L8.30063 13.1105L8.92755 12.3013H9.70829L8.67297 13.5944L9.69957 14.8875H8.88714L8.28048 14.091L7.68857 14.8875H6.88768Z" fill="#016FD0"/>
<path d="M9.77612 12.3018V14.888H10.438V14.0713H11.1169C11.6914 14.0713 12.1268 13.7658 12.1268 13.1716C12.1268 12.6795 11.7853 12.3018 11.2007 12.3018H9.77612ZM10.438 12.8866H11.153C11.3386 12.8866 11.4712 13.0007 11.4712 13.1844C11.4712 13.357 11.3393 13.4822 11.1509 13.4822H10.438V12.8866Z" fill="#016FD0"/>
<path d="M12.4067 12.3013V14.8875H13.0517V13.9687H13.3233L14.0966 14.8875H14.8847L14.0361 13.9347C14.3844 13.9052 14.7436 13.6056 14.7436 13.1403C14.7436 12.5961 14.3175 12.3013 13.842 12.3013H12.4067ZM13.0517 12.8798H13.7889C13.9658 12.8798 14.0944 13.0185 14.0944 13.152C14.0944 13.3238 13.9277 13.4242 13.7985 13.4242H13.0517V12.8798Z" fill="#016FD0"/>
<path d="M17.4171 14.8875V14.326H18.7079C18.8988 14.326 18.9815 14.2226 18.9815 14.1091C18.9815 14.0004 18.8991 13.8904 18.7079 13.8904H18.1246C17.6176 13.8904 17.3352 13.5808 17.3352 13.1158C17.3352 12.7012 17.5938 12.3013 18.3472 12.3013H19.6031L19.3316 12.8832H18.2454C18.0377 12.8832 17.9738 12.9924 17.9738 13.0967C17.9738 13.2039 18.0528 13.3222 18.2114 13.3222H18.8224C19.3876 13.3222 19.6329 13.6435 19.6329 14.0644C19.6329 14.5169 19.3596 14.8875 18.7916 14.8875H17.4171Z" fill="#016FD0"/>
<path d="M19.7843 14.8875V14.326H21.075C21.266 14.326 21.3487 14.2226 21.3487 14.1091C21.3487 14.0004 21.2663 13.8904 21.075 13.8904H20.4918C19.9848 13.8904 19.7024 13.5808 19.7024 13.1158C19.7024 12.7012 19.961 12.3013 20.7144 12.3013H21.9703L21.6988 12.8832H20.6125C20.4049 12.8832 20.341 12.9924 20.341 13.0967C20.341 13.2039 20.42 13.3222 20.5786 13.3222H21.1896C21.7548 13.3222 22 13.6435 22 14.0644C22 14.5169 21.7268 14.8875 21.1588 14.8875H19.7843Z" fill="#016FD0"/>
</g>
<defs>
<clipPath id="clip0_1305_1955">
<rect width="22" height="22" fill="white"/>
</clipPath>
</defs>
</svg>
