<svg width="40" height="40" viewBox="0 0 40 40" fill="none" xmlns="http://www.w3.org/2000/svg">
<g clip-path="url(#clip0_1305_1944)">
<path fill-rule="evenodd" clip-rule="evenodd" d="M8.99537 16.7677C9.36678 16.6422 9.75503 16.5787 10.1456 16.5794C11.9013 16.5794 13.3668 17.8453 13.7024 19.529L16.1902 19.0135C15.6194 16.1522 13.1307 14 10.1461 14C9.46197 14 8.80554 14.113 8.19019 14.3219L8.99537 16.7677Z" fill="#FFCA05"/>
<path fill-rule="evenodd" clip-rule="evenodd" d="M6.10681 25.0575L7.80973 23.1061C7.04951 22.4234 6.56995 21.4273 6.56995 20.3179C6.56995 19.2084 7.04865 18.2128 7.80843 17.5309L6.10595 15.5796C4.8147 16.7388 4 18.432 4 20.3179C4 22.2042 4.8147 23.8978 6.10681 25.0575Z" fill="#00A4DF"/>
<path fill-rule="evenodd" clip-rule="evenodd" d="M13.7028 21.1084C13.366 22.7917 11.9022 24.0567 10.1482 24.0567C9.75695 24.0575 9.36804 23.9935 8.99624 23.8671L8.19019 26.3156C8.8051 26.5245 9.46327 26.637 10.1478 26.637C13.129 26.637 15.6172 24.4866 16.1902 21.6271L13.7028 21.1084Z" fill="#EE4123"/>
<path fill-rule="evenodd" clip-rule="evenodd" d="M23.2328 22.3938L23.2311 22.3956L23.1606 22.3463C22.9573 22.6888 22.6417 22.9667 22.2417 23.1469C21.4819 23.4908 20.7779 23.4025 20.2724 22.9407L20.2261 23.0142C20.2252 23.0133 20.2252 23.0129 20.2244 23.0129L19.3621 24.3559C19.5766 24.5111 19.8063 24.6421 20.0475 24.7468C21.0002 25.1592 21.9744 25.14 22.9344 24.7051C23.6293 24.3918 24.1738 23.9139 24.5465 23.3083L23.2328 22.3938ZM20.5409 19.0797C19.7388 19.4383 19.3249 20.2224 19.4101 21.1413L22.809 19.6181C22.2244 18.9027 21.4642 18.666 20.5409 19.0797ZM18.2845 23.1716C18.1881 23.0051 18.102 22.8325 18.0268 22.6547C17.6345 21.7066 17.6159 20.7258 17.9468 19.784C18.3109 18.7511 19.0062 17.9604 19.9052 17.5578C21.0352 17.0513 22.2845 17.1512 23.3673 17.8205C24.0553 18.2311 24.5431 18.8659 24.9132 19.7629C24.9608 19.8777 25.0019 20.0005 25.0425 20.1049L18.2845 23.1716ZM27.4045 15.5796V23.0474L28.5197 23.5181L27.8862 25.0575L26.6555 24.524C26.3792 24.399 26.1911 24.2085 26.0488 23.9933C25.9126 23.7736 25.811 23.4733 25.811 23.0676V15.5796H27.4045ZM30.2931 21.1449C30.2926 21.4461 30.354 21.7439 30.4733 22.0185C30.5926 22.2931 30.7671 22.5381 30.985 22.7372L29.8425 24.0668C29.4445 23.6999 29.1262 23.2495 28.9087 22.7455C28.6911 22.2415 28.5793 21.6953 28.5807 21.1431C28.5802 20.5913 28.6928 20.0456 28.911 19.5422C29.1292 19.0388 29.4481 18.5892 29.8464 18.2231L30.9902 19.5513C30.7711 19.75 30.5955 19.9951 30.4753 20.2699C30.3551 20.5448 30.293 20.8431 30.2931 21.1449ZM32.3256 23.2644C33.308 23.2653 34.1279 22.5404 34.3191 21.5762L35.9982 21.933C35.6479 23.7122 34.1353 25.0503 32.3238 25.0485C31.9195 25.0484 31.5179 24.9801 31.1346 24.8463L31.6812 23.155C31.8836 23.2249 32.1007 23.2639 32.3256 23.2644ZM32.3308 17.2449C34.1435 17.2463 35.6544 18.5898 35.9999 20.3712L34.3204 20.7253C34.2283 20.2478 33.9797 19.8179 33.6167 19.5087C33.2538 19.1994 32.7988 19.0298 32.329 19.0286C32.1099 19.0287 31.8922 19.0653 31.6843 19.1371L31.1429 17.444C31.5258 17.3114 31.927 17.2442 32.3308 17.2449Z" fill="black"/>
</g>
<defs>
<clipPath id="clip0_1305_1944">
<rect width="32" height="13" fill="white" transform="translate(4 14)"/>
</clipPath>
</defs>
</svg>
