<svg width="36" height="15" viewBox="0 0 36 15" fill="none" xmlns="http://www.w3.org/2000/svg">
<g clip-path="url(#clip0_1305_1952)">
<path d="M15.0615 14.7985L0.188965 14.8035V14.7699C0.188965 14.7515 0.212685 14.6318 0.241676 14.504C0.270667 14.3762 0.315739 14.173 0.341835 14.0523C0.36793 13.9317 0.412548 13.7267 0.440985 13.5968C0.469421 13.4669 0.516667 13.2505 0.545977 13.1159C0.575286 12.9813 0.621201 12.7687 0.648008 12.6435C0.674815 12.5182 0.719571 12.3132 0.747467 12.1879C0.775362 12.0626 0.822919 11.8462 0.853152 11.707C0.883383 11.5678 0.929339 11.3552 0.955275 11.2346C0.981213 11.1139 1.02243 10.9279 1.04687 10.8212C1.07131 10.7145 1.10247 10.5702 1.11611 10.5006C1.12975 10.431 1.17389 10.226 1.2142 10.045C1.25451 9.86407 1.29902 9.65907 1.3131 9.58947C1.32718 9.51987 1.37188 9.31486 1.41243 9.1339C1.45299 8.95294 1.49754 8.74793 1.51143 8.67833C1.52533 8.60873 1.57013 8.40373 1.61098 8.22276C1.65184 8.0418 1.69594 7.84059 1.70897 7.77563C1.72201 7.71067 1.75773 7.54363 1.78834 7.40443C1.81895 7.26523 1.87687 7.00328 1.91705 6.82231C1.95723 6.64135 2.02596 6.32625 2.06978 6.12209C2.1136 5.91793 2.16597 5.67496 2.18615 5.58216C2.20633 5.48936 2.24282 5.32231 2.26724 5.21095C2.29167 5.09959 2.33601 4.89838 2.36579 4.76382C2.39557 4.62926 2.44403 4.40907 2.47347 4.27451C2.50291 4.13995 2.54828 3.93114 2.57428 3.8105C2.60029 3.68986 2.64468 3.48865 2.67292 3.36337C2.70117 3.23809 2.74975 3.0179 2.78089 2.87406C2.81202 2.73022 2.86418 2.51002 2.89679 2.38474C2.9294 2.25946 2.97551 2.10761 2.99924 2.04729C3.02298 1.98696 3.08852 1.8562 3.14489 1.75671L3.24737 1.5758L3.34053 1.46143C3.39177 1.39853 3.48326 1.29913 3.54383 1.24054C3.6044 1.18196 3.70661 1.0938 3.77096 1.04464C3.83531 0.995479 3.92846 0.929133 3.97796 0.897205C4.02746 0.865277 4.12466 0.809381 4.19396 0.77299C4.26326 0.7366 4.36046 0.688947 4.40996 0.667094C4.45946 0.645241 4.56071 0.605358 4.63496 0.578465C4.70921 0.551572 4.85096 0.506494 4.94996 0.478292C5.04896 0.45009 5.2348 0.407581 5.36293 0.383828C5.49106 0.360074 5.69356 0.328349 5.81293 0.313326L6.02996 0.286012L20.9115 0.280701L35.793 0.275391V0.308923C35.793 0.327367 35.7691 0.447007 35.7399 0.574792C35.7107 0.702577 35.662 0.92102 35.6316 1.06022C35.6011 1.19942 35.5567 1.40063 35.5329 1.50735C35.5091 1.61407 35.4639 1.81908 35.4326 1.96292C35.4013 2.10676 35.3531 2.32695 35.3255 2.45223C35.2979 2.57752 35.2532 2.78252 35.2262 2.9078C35.1992 3.03308 35.1543 3.23809 35.1264 3.36337C35.0985 3.48865 35.0552 3.68606 35.0302 3.80207C35.0053 3.91807 34.96 4.12687 34.9297 4.26607C34.8995 4.40527 34.8508 4.62546 34.8216 4.75538C34.7925 4.88531 34.748 5.08652 34.7229 5.20252C34.6977 5.31852 34.6525 5.52732 34.6223 5.66652C34.5921 5.80572 34.5436 6.02591 34.5144 6.15583C34.4853 6.28576 34.4418 6.48317 34.4178 6.59453C34.3939 6.70589 34.3488 6.91469 34.3176 7.05853C34.2865 7.20238 34.2411 7.41118 34.2167 7.52254C34.1924 7.6339 34.1489 7.83131 34.1201 7.96123C34.0913 8.09116 34.0421 8.31514 34.0107 8.45898C33.9793 8.60283 33.9344 8.80783 33.9109 8.91455C33.8874 9.02127 33.8433 9.22248 33.8131 9.36168C33.7828 9.50089 33.7346 9.72108 33.706 9.851C33.6774 9.98092 33.6325 10.1859 33.6063 10.3066C33.5801 10.4272 33.5345 10.636 33.505 10.7706C33.4755 10.9051 33.4274 11.1253 33.398 11.2599C33.3686 11.3944 33.3246 11.5957 33.3001 11.707C33.2757 11.8184 33.231 12.0234 33.2009 12.1626C33.1707 12.3018 33.1217 12.5211 33.0918 12.6501L33.0377 12.8844L32.9731 13.0466C32.9376 13.1357 32.8842 13.2543 32.8544 13.3099C32.8247 13.3656 32.7641 13.4639 32.7198 13.5282C32.6755 13.5926 32.6138 13.6751 32.5826 13.7116C32.5515 13.748 32.4577 13.8421 32.3742 13.9207L32.2224 14.0635L32.0763 14.1608C31.9959 14.2144 31.9094 14.2688 31.884 14.2818C31.8585 14.2948 31.7617 14.3411 31.6688 14.3847C31.576 14.4283 31.4447 14.4838 31.3773 14.508C31.3098 14.5323 31.1761 14.5735 31.0803 14.5997C30.9844 14.6258 30.8817 14.6516 30.852 14.6569C30.8223 14.6623 30.7192 14.6823 30.6228 14.7014C30.5265 14.7205 30.3321 14.749 30.1908 14.7648L29.934 14.7935L15.0615 14.7985ZM9.77009 11.1924H10.1571L10.168 11.1657C10.174 11.151 10.179 11.1165 10.179 11.089C10.179 11.0615 10.1917 10.9615 10.2073 10.8668C10.2229 10.7721 10.2595 10.5542 10.2886 10.3825C10.3178 10.2108 10.3614 9.95266 10.3856 9.80882C10.4097 9.66497 10.4393 9.48085 10.4511 9.39965C10.463 9.31845 10.4775 9.25201 10.4834 9.25201C10.4892 9.25201 10.5143 9.28789 10.539 9.33174L10.584 9.41148L10.6838 9.50572L10.7835 9.59996L10.9064 9.64606L11.0292 9.69215L11.1756 9.70994L11.322 9.72772L11.5078 9.71704L11.6936 9.70635L11.8948 9.65755L12.096 9.60874L12.204 9.56253C12.2634 9.53712 12.3687 9.48171 12.438 9.4394L12.564 9.36247L12.6814 9.2524C12.7461 9.19186 12.8372 9.0948 12.8839 9.03669C12.9307 8.97859 12.969 8.92681 12.969 8.92162C12.969 8.91644 12.9919 8.88046 13.02 8.84166C13.0481 8.80287 13.1056 8.6952 13.1477 8.6024C13.1899 8.5096 13.2558 8.34256 13.2941 8.2312L13.3639 8.02873L13.3999 7.85334C13.4198 7.75688 13.4453 7.59743 13.4566 7.49901L13.4773 7.32006L13.4654 7.16821L13.4534 7.01635L13.4159 6.8645L13.3783 6.71264L13.3175 6.59894L13.2567 6.48525L13.1393 6.36855L13.0218 6.25184L12.8829 6.18453L12.744 6.11721L12.591 6.08287L12.438 6.04854L12.285 6.03801L12.132 6.02748L11.9615 6.04584L11.7911 6.0642L11.652 6.09749L11.5129 6.13079L11.392 6.18322C11.3256 6.21206 11.2288 6.26104 11.1771 6.29206C11.1254 6.32309 11.072 6.35878 11.0585 6.37139C11.045 6.38399 11.0127 6.40734 10.9867 6.42327L10.9395 6.45223L10.9725 6.30403C10.9907 6.22252 11.0059 6.14634 11.0063 6.13474L11.007 6.11365H10.677H10.347L10.2891 6.45533C10.2573 6.64325 10.207 6.93368 10.1774 7.10072C10.1478 7.26776 10.1032 7.51832 10.0783 7.65752C10.0533 7.79672 10.0088 8.04349 9.97938 8.20589C9.94994 8.36829 9.90128 8.62645 9.87125 8.77957C9.84121 8.93269 9.79721 9.15668 9.77347 9.27732C9.74973 9.39796 9.70504 9.62574 9.67417 9.78351C9.6433 9.94127 9.59368 10.1918 9.56391 10.3403C9.53415 10.4888 9.48571 10.7242 9.45627 10.8634C9.42683 11.0026 9.39831 11.1335 9.3929 11.1544L9.38306 11.1924H9.77009ZM11.4362 9.24157L11.286 9.25004L11.1877 9.23379L11.0895 9.21753L10.9897 9.17484L10.89 9.13214L10.8203 9.06974L10.7506 9.00735L10.7103 8.92299C10.6882 8.87659 10.6598 8.79777 10.6472 8.74783L10.6242 8.65703L10.6334 8.51161L10.6426 8.36618L10.689 8.1384C10.7145 8.01312 10.7603 7.77774 10.7908 7.61534C10.8212 7.45294 10.8674 7.21498 10.8933 7.08655L10.9404 6.85304L11.0436 6.77254C11.1004 6.72827 11.1903 6.66894 11.2434 6.64069L11.34 6.58933L11.466 6.55277L11.592 6.51621L11.754 6.50729L11.916 6.49837L12.0479 6.52473L12.1798 6.55108L12.2729 6.59127L12.366 6.63146L12.444 6.70503L12.5221 6.77859L12.5642 6.85649C12.5874 6.89934 12.6199 6.98321 12.6365 7.04287L12.6667 7.15134L12.6574 7.47192L12.6482 7.79251L12.602 7.98199C12.5765 8.08622 12.5281 8.24566 12.4944 8.33633L12.4331 8.50117L12.358 8.6346C12.3167 8.708 12.253 8.80717 12.2164 8.855C12.1799 8.90282 12.1216 8.96478 12.087 8.99267C12.0523 9.02056 11.9943 9.06415 11.958 9.08954L11.8921 9.13569L11.7393 9.1844L11.5865 9.23311L11.4362 9.24157ZM15.174 9.70543L15.372 9.70755L15.57 9.69062C15.6789 9.68131 15.8571 9.66193 15.966 9.64755C16.0749 9.63317 16.263 9.60098 16.384 9.57602L16.6041 9.53063L16.615 9.45459C16.6211 9.41277 16.6458 9.28828 16.67 9.17793L16.7139 8.97731L16.7042 8.96821L16.6945 8.95912L16.6272 8.98958C16.5902 9.00633 16.475 9.04628 16.3711 9.07837L16.1823 9.1367L15.9841 9.17269L15.786 9.20867L15.471 9.20925L15.156 9.20982L15.048 9.17749C14.9886 9.15971 14.9012 9.12717 14.8538 9.10519L14.7677 9.06522L14.6966 9.00501L14.6255 8.94479L14.57 8.85391L14.5145 8.76302L14.4797 8.64902L14.445 8.53501L14.4447 8.32405L14.4445 8.11308L14.4753 7.92488L14.5062 7.73668L14.7771 7.72481L15.048 7.71295L16.0492 7.71898L17.0505 7.72501L17.0807 7.60479C17.0974 7.53867 17.1228 7.402 17.1372 7.30108L17.1635 7.11758L17.164 6.96322L17.1646 6.80887L17.1361 6.69363L17.1076 6.5784L17.0604 6.5021C17.0345 6.46013 16.9888 6.39931 16.9589 6.36694C16.929 6.33458 16.8756 6.28894 16.8403 6.26553C16.8049 6.24213 16.7355 6.20279 16.686 6.17812L16.596 6.13327L16.4387 6.09774L16.2815 6.06221L16.0877 6.04485L15.894 6.02748L15.714 6.03847L15.534 6.04946L15.318 6.08834L15.102 6.12722L14.967 6.17782C14.8927 6.20564 14.7793 6.25639 14.715 6.29059C14.6506 6.32478 14.5615 6.38045 14.517 6.41429C14.4724 6.44812 14.3953 6.51391 14.3456 6.56048C14.2958 6.60704 14.2223 6.6907 14.1821 6.74638C14.1419 6.80206 14.0803 6.90076 14.0452 6.96572C14.0101 7.03069 13.9644 7.1218 13.9436 7.1682C13.9228 7.2146 13.885 7.30951 13.8596 7.37911C13.8342 7.44871 13.7943 7.58159 13.7709 7.67439C13.7475 7.76719 13.7155 7.91995 13.6997 8.01386L13.671 8.18461L13.6712 8.43569L13.6715 8.68677L13.6989 8.79644C13.7139 8.85676 13.7427 8.94788 13.7628 8.99892C13.7829 9.04996 13.8201 9.12589 13.8455 9.16765C13.8708 9.20941 13.9249 9.27664 13.9658 9.31706C14.0066 9.35748 14.0805 9.41881 14.13 9.45335C14.1795 9.48789 14.2676 9.53647 14.3258 9.56131L14.4316 9.60647L14.5792 9.63991C14.6603 9.6583 14.7828 9.68008 14.8513 9.68833C14.9199 9.69657 15.0651 9.70426 15.174 9.70543ZM15.513 7.3285C15.0147 7.3285 14.607 7.32516 14.607 7.32107C14.607 7.31698 14.6282 7.25814 14.6542 7.19031C14.6802 7.12247 14.7258 7.02151 14.7556 6.96594L14.8098 6.8649L14.9289 6.75389L15.048 6.64288L15.165 6.59044C15.2293 6.56159 15.3144 6.53019 15.354 6.52064C15.3936 6.5111 15.507 6.49844 15.606 6.49251L15.786 6.48173L15.9242 6.49838L16.0624 6.51504L16.1629 6.55815L16.2633 6.60125L16.3184 6.65695C16.3487 6.68758 16.3849 6.73269 16.3987 6.75719L16.4238 6.80174L16.4405 6.90061L16.4571 6.99948L16.4381 7.16399L16.4191 7.3285H15.513ZM20.8981 9.70552L21.0962 9.70758L21.3211 9.68259C21.4448 9.66885 21.6094 9.64608 21.687 9.63199C21.7645 9.6179 21.8901 9.58993 21.966 9.56983C22.0419 9.54974 22.1105 9.52801 22.1186 9.52155C22.1266 9.51509 22.148 9.43851 22.1662 9.35138C22.1844 9.26425 22.2073 9.1474 22.2171 9.09172C22.2269 9.03604 22.232 8.9875 22.2284 8.98386C22.2248 8.98022 22.2115 8.98492 22.1989 8.99431C22.1863 9.0037 22.098 9.03854 22.0026 9.07173L21.8293 9.13208L21.5825 9.1769L21.3357 9.22173L21.1258 9.21501L20.916 9.2083L20.7968 9.16955L20.6776 9.1308L20.5855 9.05528L20.4934 8.97975L20.4323 8.87544L20.3712 8.77113L20.3421 8.63159L20.313 8.49204L20.3131 8.311L20.3133 8.12996L20.3487 7.91062L20.384 7.69127L20.4215 7.57316C20.442 7.5082 20.4653 7.43227 20.4732 7.40443C20.4811 7.37659 20.5141 7.29686 20.5466 7.22726C20.579 7.15766 20.6369 7.05009 20.6753 6.98821L20.7449 6.87571L20.8305 6.7926L20.9161 6.70949L21.0067 6.6568L21.0973 6.60411L21.2137 6.57051C21.2777 6.55203 21.3908 6.52804 21.4651 6.51719L21.6001 6.49747L21.7981 6.50679L21.9961 6.5161L22.2301 6.56L22.4641 6.60391L22.5593 6.63718C22.6116 6.65549 22.6567 6.67046 22.6595 6.67046C22.6623 6.67046 22.6749 6.60782 22.6874 6.53126C22.7 6.4547 22.7223 6.32873 22.7371 6.25135C22.7518 6.17395 22.7603 6.10731 22.756 6.10324C22.7516 6.09917 22.6813 6.0887 22.5997 6.07997C22.518 6.07124 22.2962 6.05575 22.1067 6.04554L21.7621 6.02697L21.5191 6.04445L21.2761 6.06193L21.0961 6.09739L20.9161 6.13285L20.8002 6.17631C20.7364 6.20021 20.643 6.24335 20.5926 6.27217C20.5423 6.30099 20.4781 6.33975 20.4501 6.35831C20.4221 6.37687 20.3372 6.44928 20.2614 6.51923L20.1235 6.6464L20.0465 6.75209C20.0042 6.81021 19.931 6.93142 19.8838 7.02143L19.798 7.18508L19.7323 7.36225C19.6962 7.45969 19.6457 7.61914 19.6202 7.71658L19.5737 7.89374L19.5569 8.05404L19.54 8.21433L19.5402 8.42524L19.5404 8.63615L19.5574 8.75884L19.5744 8.88154L19.6283 9.00775L19.6822 9.13397L19.7445 9.22522L19.8067 9.31646L19.9058 9.40781L20.0048 9.49916L20.1095 9.55105L20.2143 9.60295L20.3519 9.63878C20.4276 9.65848 20.5369 9.6811 20.5949 9.68903C20.6528 9.69697 20.7894 9.70439 20.8984 9.70552H20.8981ZM23.859 9.69929L24.102 9.69276L24.255 9.65605L24.408 9.61934L24.507 9.57547C24.5614 9.55134 24.6505 9.50371 24.705 9.46962C24.7594 9.43553 24.8437 9.37073 24.8923 9.32561C24.9408 9.28049 25.0128 9.20351 25.0523 9.15454C25.0917 9.10558 25.1264 9.06774 25.1293 9.07047C25.1322 9.07319 25.1231 9.15122 25.1091 9.24386C25.0951 9.3365 25.0835 9.45976 25.0833 9.51776L25.083 9.62321H25.4133H25.7437L25.7538 9.38278L25.7639 9.14234L25.811 8.83019C25.8369 8.65851 25.8788 8.40415 25.9041 8.26495C25.9293 8.12574 25.9732 7.89037 26.0016 7.74189C26.03 7.59341 26.075 7.36182 26.1016 7.22726L26.1499 6.98261L26.1516 6.77128L26.1532 6.55995L26.1022 6.46228L26.0512 6.36461L25.9821 6.3024L25.913 6.2402L25.7995 6.18629L25.686 6.13238L25.5168 6.09712L25.3477 6.06185L25.1148 6.04524L24.8819 6.02863L24.582 6.04602C24.417 6.05559 24.1848 6.07449 24.066 6.08801L23.85 6.1126L23.7028 6.11312L23.5556 6.11365L23.5341 6.21067C23.5224 6.26403 23.4896 6.3908 23.4614 6.49239C23.4332 6.59398 23.4127 6.67955 23.4159 6.68255C23.4191 6.68554 23.4978 6.66879 23.5908 6.64532C23.6839 6.62185 23.8815 6.58325 24.03 6.55955L24.3 6.51645L24.543 6.50706L24.786 6.49767L24.9425 6.52339L25.099 6.54911L25.2035 6.59745L25.308 6.64578L25.3665 6.72752L25.425 6.80925L25.4242 6.93811L25.4233 7.06696L25.3923 7.20837L25.3613 7.34978L24.7136 7.35197L24.066 7.35416L23.854 7.40864C23.7374 7.4386 23.6083 7.47838 23.5671 7.49704C23.5259 7.5157 23.4847 7.53097 23.4755 7.53097C23.4664 7.53097 23.397 7.56702 23.3214 7.61108L23.184 7.69119L23.0757 7.79246C23.0162 7.84816 22.9401 7.9317 22.9067 7.9781C22.8733 8.0245 22.819 8.12143 22.786 8.19351L22.7261 8.32455L22.6986 8.47191L22.6711 8.61927V8.77386V8.92845L22.6974 9.05716L22.7236 9.18587L22.7724 9.26982C22.7992 9.31599 22.8484 9.38362 22.8817 9.42012L22.9423 9.48646L23.0499 9.54777L23.1576 9.60907L23.2808 9.64176C23.3486 9.65974 23.4518 9.68151 23.5101 9.69013L23.6161 9.70581L23.8591 9.69928L23.859 9.69929ZM24.084 9.22748L23.94 9.23452L23.8446 9.21175C23.7921 9.19923 23.7125 9.1713 23.6677 9.14969L23.5862 9.11039L23.5417 9.06084C23.5173 9.03358 23.4799 8.98003 23.4587 8.94183L23.4201 8.87237L23.4125 8.71017L23.405 8.54797L23.4355 8.44959C23.4523 8.39547 23.4916 8.30158 23.523 8.24092L23.58 8.13065L23.6891 8.02907L23.7982 7.92749L23.9141 7.87519L24.03 7.82289L24.174 7.79082L24.318 7.75876H24.768H25.218L25.2464 7.76979L25.2749 7.78083L25.2509 7.91321C25.2378 7.98603 25.2063 8.11773 25.1811 8.20589C25.1559 8.29405 25.1113 8.42365 25.0821 8.49389C25.0529 8.56412 25.029 8.62622 25.029 8.63188C25.029 8.63754 24.9994 8.68871 24.9632 8.74561L24.8975 8.84905L24.7896 8.94929C24.7302 9.00443 24.6751 9.04954 24.6671 9.04954C24.6591 9.04954 24.6227 9.06853 24.5862 9.09174L24.5199 9.13393L24.3739 9.17719L24.228 9.22044L24.084 9.22748ZM29.943 9.70532L30.114 9.70734L30.276 9.68269C30.3651 9.66914 30.4785 9.6473 30.528 9.63417C30.5775 9.62103 30.6666 9.58695 30.726 9.55842L30.834 9.50655L30.9269 9.4299L31.0198 9.35324L31.1176 9.23091C31.1714 9.16364 31.2202 9.0972 31.2259 9.08328L31.2364 9.05797L31.2273 9.14234C31.2223 9.18874 31.2111 9.26466 31.2024 9.31107C31.1937 9.35747 31.1812 9.44668 31.1747 9.50932L31.1628 9.62321H31.5159H31.869V9.50932V9.39543L31.9228 8.96517C31.9523 8.72853 31.9961 8.41343 32.02 8.26495C32.0439 8.11646 32.0807 7.90387 32.1019 7.79251C32.1231 7.68114 32.1606 7.47994 32.1853 7.34537C32.2099 7.21081 32.2545 6.97544 32.2843 6.82231C32.314 6.66919 32.3617 6.42622 32.3902 6.28238C32.4187 6.13854 32.4629 5.91455 32.4885 5.78463C32.5142 5.65471 32.5601 5.42693 32.5905 5.27844C32.621 5.12996 32.6655 4.92116 32.6895 4.81444C32.7134 4.70772 32.733 4.61471 32.7329 4.60775V4.59509H32.3477H31.9625L31.9511 4.70055C31.9448 4.75855 31.9153 4.95027 31.8856 5.12659C31.8558 5.30291 31.8072 5.58384 31.7776 5.75089C31.7481 5.91793 31.7196 6.07991 31.7143 6.11084L31.7047 6.16709L31.6743 6.15497C31.6576 6.14831 31.567 6.12474 31.4729 6.1026L31.3019 6.06236L31.0679 6.04527L30.8339 6.02819L30.6359 6.04548L30.4379 6.06278L30.2579 6.10543L30.0779 6.14808L29.9069 6.22626L29.7359 6.30444L29.6099 6.39188L29.4839 6.47933L29.3751 6.58869C29.3153 6.64884 29.2288 6.74833 29.183 6.80978L29.0997 6.9215L29.0018 7.11235C28.948 7.21731 28.8825 7.35634 28.8563 7.4213C28.8301 7.48626 28.7838 7.63026 28.7535 7.7413L28.6984 7.94319L28.6713 8.20531L28.6441 8.46742L28.6645 8.67833L28.6849 8.88924L28.709 8.96517C28.7222 9.00693 28.7502 9.08133 28.7711 9.13051L28.8091 9.21992L28.8784 9.30785L28.9477 9.39578L29.0268 9.45652L29.1059 9.51727L29.2139 9.56754C29.2733 9.59519 29.373 9.63091 29.4354 9.64694C29.4978 9.66296 29.599 9.68219 29.6604 9.68968C29.7217 9.69717 29.8489 9.70421 29.9429 9.70532H29.943ZM30.2499 9.22661L30.114 9.23337L30.0222 9.21789C29.9718 9.20938 29.891 9.18656 29.8428 9.16719L29.7551 9.13196L29.6814 9.07529L29.6076 9.01862L29.5528 8.92019L29.4979 8.82175L29.4729 8.71208L29.448 8.6024L29.4501 8.38306L29.4522 8.16371L29.4812 7.96967L29.5102 7.77563L29.5553 7.64065C29.5801 7.56641 29.6005 7.49636 29.6007 7.485C29.6009 7.47363 29.6253 7.41289 29.6551 7.35001C29.6849 7.28714 29.7347 7.19014 29.7657 7.13446C29.7967 7.07878 29.8547 6.99198 29.8946 6.94157C29.9345 6.89116 30.0055 6.81523 30.0524 6.77284C30.0993 6.73045 30.174 6.67485 30.2183 6.64928L30.2989 6.6028L30.4404 6.5569L30.582 6.51099L30.879 6.51082H31.176L31.347 6.55529C31.441 6.57975 31.5409 6.60811 31.5689 6.61832L31.6198 6.63688L31.6098 6.6832C31.6044 6.70867 31.583 6.82063 31.5623 6.93199C31.5416 7.04335 31.5009 7.25595 31.4718 7.40443C31.4426 7.55291 31.3979 7.7769 31.3723 7.90218C31.3468 8.02746 31.3097 8.18691 31.29 8.25651C31.2703 8.32611 31.2425 8.42251 31.2283 8.47074C31.214 8.51897 31.18 8.60249 31.1528 8.65634C31.1255 8.7102 31.0779 8.78843 31.0468 8.83019C31.0158 8.87195 30.9633 8.9298 30.9302 8.95874C30.8971 8.98768 30.8254 9.03912 30.771 9.07304L30.672 9.13471L30.5289 9.17727L30.3858 9.21984L30.2499 9.22661ZM3.75832 9.62321H4.19567L4.22705 9.44183C4.24431 9.34207 4.27801 9.15035 4.30195 9.01579C4.32589 8.88123 4.37044 8.63067 4.40096 8.45898C4.43148 8.2873 4.47722 8.03294 4.50262 7.89374C4.52802 7.75454 4.56837 7.53861 4.59229 7.41389C4.61621 7.28917 4.64032 7.18287 4.64587 7.17767L4.65596 7.16821H5.83196H7.00796L7.02101 7.18044L7.03407 7.19268L7.01368 7.29012C7.00247 7.34371 6.96929 7.50904 6.93996 7.65752C6.91063 7.806 6.86131 8.05657 6.83038 8.21433C6.79944 8.37209 6.75471 8.59608 6.73097 8.71208C6.70723 8.82808 6.6592 9.07105 6.62422 9.25201C6.58925 9.43297 6.56071 9.59052 6.5608 9.60212L6.56098 9.62321H7.00013H7.43928L7.45871 9.51776C7.4694 9.45976 7.4866 9.35536 7.49693 9.28576C7.50726 9.21616 7.53216 9.0681 7.55226 8.95673C7.57237 8.84537 7.61254 8.62518 7.64153 8.46742C7.67052 8.30966 7.71905 8.04011 7.74937 7.86843C7.77968 7.69675 7.82466 7.44619 7.84932 7.31163C7.87397 7.17707 7.9179 6.94928 7.94694 6.80544C7.97598 6.6616 8.02435 6.41863 8.05443 6.26551C8.0845 6.11239 8.12957 5.88081 8.15456 5.75089C8.17956 5.62096 8.22514 5.38559 8.25585 5.22783C8.28656 5.07006 8.32533 4.88594 8.34202 4.81866L8.37236 4.69633H7.92771H7.48307L7.47097 4.77648C7.46432 4.82056 7.44284 4.94394 7.42324 5.05066C7.40363 5.15738 7.36798 5.3472 7.344 5.47248C7.32002 5.59776 7.2762 5.83694 7.24662 6.00398C7.21704 6.17102 7.17934 6.39214 7.16285 6.49536L7.13286 6.68304L6.48014 6.69542L5.82741 6.7078L5.2807 6.69564C4.98 6.68895 4.73231 6.68215 4.73027 6.68053C4.72824 6.67891 4.73848 6.61333 4.75303 6.53482C4.76759 6.4563 4.79512 6.31992 4.81422 6.23176C4.83332 6.1436 4.86953 5.96897 4.89468 5.84369C4.91983 5.71841 4.94833 5.56275 4.95799 5.49779C4.96766 5.43283 4.98793 5.32463 5.00303 5.25735C5.01813 5.19007 5.04678 5.04835 5.06671 4.94242C5.08663 4.83649 5.10786 4.73778 5.11388 4.72307L5.12483 4.69633H4.68377H4.24272L4.21447 4.84397C4.19893 4.92517 4.17821 5.04096 4.16843 5.10128C4.15865 5.1616 4.1258 5.35522 4.09543 5.53154C4.06506 5.70786 4.02023 5.96981 3.9958 6.11365C3.97137 6.25749 3.92689 6.51945 3.89695 6.69577C3.86701 6.87209 3.81761 7.14543 3.78718 7.30319C3.75674 7.46095 3.71267 7.68494 3.68925 7.80094C3.66582 7.91694 3.62119 8.13713 3.59006 8.29026C3.55893 8.44338 3.51351 8.65977 3.48913 8.77113C3.46475 8.88249 3.4378 9.01157 3.42924 9.05797C3.42068 9.10437 3.39282 9.2382 3.36733 9.35537C3.34184 9.47253 3.32098 9.58073 3.32098 9.59581V9.62321H3.75832ZM8.59994 9.62321H8.98711L8.99804 9.59652C9.00405 9.58185 9.00896 9.54334 9.00896 9.51096C9.00896 9.47858 9.03331 9.31026 9.06307 9.13692C9.09282 8.96357 9.14199 8.68128 9.17233 8.5096C9.20266 8.33792 9.24746 8.08736 9.27188 7.9528C9.2963 7.81824 9.33973 7.59425 9.36839 7.45505C9.39705 7.31585 9.44105 7.09945 9.46616 6.97417C9.49127 6.84889 9.54066 6.61054 9.5759 6.4445C9.61115 6.27847 9.64439 6.13595 9.64976 6.1278L9.65953 6.11299L9.26799 6.11754L8.87646 6.12209L8.84385 6.34144C8.82592 6.46208 8.78671 6.70125 8.75672 6.87293C8.72673 7.04461 8.68136 7.30657 8.65591 7.45505C8.63046 7.60353 8.58607 7.8427 8.55727 7.98654C8.52847 8.13038 8.48434 8.35058 8.4592 8.47586C8.43406 8.60114 8.38894 8.82133 8.35895 8.96517C8.32895 9.10901 8.2887 9.29883 8.2695 9.38699C8.2503 9.47515 8.22968 9.56437 8.22368 9.58525L8.21277 9.62321H8.59994ZM17.6553 9.62321H18.0396L18.0511 9.47079C18.0575 9.38695 18.0792 9.21801 18.0994 9.09536C18.1197 8.97272 18.1611 8.72811 18.1915 8.55179C18.2219 8.37546 18.2784 8.08198 18.3171 7.8996C18.3557 7.71722 18.3994 7.53594 18.4141 7.49675C18.4289 7.45756 18.441 7.41509 18.441 7.40238C18.441 7.38966 18.4699 7.32038 18.5052 7.24843C18.5405 7.17647 18.6063 7.06628 18.6514 7.00356L18.7335 6.88953L18.8433 6.79422L18.9531 6.69891L19.0885 6.63828L19.224 6.57766L19.431 6.57867L19.638 6.57968L19.7397 6.60819C19.7957 6.62387 19.8463 6.6367 19.8522 6.6367C19.8581 6.6367 19.863 6.61876 19.863 6.59684C19.863 6.57492 19.8832 6.46378 19.908 6.34986C19.9327 6.23595 19.953 6.13794 19.953 6.13207C19.953 6.12619 19.8942 6.10465 19.8225 6.08419C19.7507 6.06373 19.6515 6.0423 19.602 6.03657L19.512 6.02615L19.395 6.04555C19.3306 6.05622 19.2349 6.07978 19.1823 6.09789C19.1297 6.11601 19.0429 6.1571 18.9893 6.18921C18.9358 6.22132 18.8525 6.28389 18.8042 6.32825C18.756 6.37262 18.6748 6.46207 18.6239 6.52703C18.5729 6.59199 18.5197 6.66032 18.5055 6.67888L18.4797 6.71263L18.4954 6.64514C18.504 6.60802 18.5279 6.48653 18.5486 6.37517C18.5693 6.26381 18.5906 6.15941 18.5958 6.14317L18.6054 6.11364H18.2622H17.919V6.15431C17.919 6.17668 17.8987 6.31146 17.8739 6.45381C17.8492 6.59616 17.8084 6.83411 17.7832 6.98259C17.7581 7.13108 17.7135 7.38923 17.6841 7.55627C17.6547 7.72331 17.61 7.96249 17.5849 8.08777C17.5597 8.21305 17.5151 8.43324 17.4856 8.57708C17.4562 8.72092 17.4073 8.9563 17.377 9.10014C17.3467 9.24398 17.3104 9.41386 17.2964 9.47763C17.2824 9.54141 17.271 9.60026 17.271 9.6084V9.6232L17.6553 9.62321ZM26.778 9.62321H27.171V9.51049V9.39777L27.2162 9.1182C27.2412 8.96443 27.2822 8.72094 27.3076 8.5771C27.3329 8.43325 27.3644 8.25103 27.3777 8.17215C27.3909 8.09326 27.426 7.92243 27.4557 7.79251C27.4854 7.66258 27.5224 7.52212 27.538 7.48036C27.5537 7.4386 27.5666 7.39478 27.5667 7.38299C27.5669 7.3712 27.6003 7.29539 27.6411 7.21452L27.7153 7.06748L27.8132 6.9456L27.911 6.82373L28.0181 6.74826C28.077 6.70676 28.1717 6.65168 28.2286 6.62587L28.332 6.57893L28.557 6.58038L28.782 6.58183L28.8705 6.6085L28.9591 6.63516L28.974 6.62651L28.989 6.61786L28.9897 6.56402C28.9901 6.53441 29.0094 6.42422 29.0325 6.31916L29.0746 6.12815L29.0273 6.11078C29.0013 6.10123 28.9395 6.08146 28.89 6.06685L28.8 6.04029L28.638 6.04067L28.476 6.04106L28.3439 6.0846L28.2119 6.12814L28.1128 6.18417L28.0137 6.2402L27.8848 6.36675L27.7559 6.4933L27.6867 6.59147C27.6486 6.64546 27.615 6.68722 27.6122 6.68427C27.6093 6.68131 27.63 6.5688 27.6581 6.43424C27.6863 6.29968 27.7098 6.1725 27.7102 6.15162L27.711 6.11366H27.378H27.045V6.12441C27.045 6.13032 27.0284 6.23852 27.0081 6.36485C26.9878 6.49118 26.947 6.735 26.9175 6.90669C26.888 7.07837 26.8396 7.3555 26.81 7.52255C26.7803 7.68959 26.7356 7.92876 26.7106 8.05404C26.6856 8.17932 26.6412 8.39951 26.612 8.54336C26.5827 8.6872 26.5346 8.91878 26.5051 9.05798C26.4756 9.19718 26.4365 9.3813 26.4183 9.46715L26.3851 9.62322L26.778 9.62321ZM9.36126 5.50586L9.47055 5.50623L9.55742 5.47848L9.6443 5.45073L9.72118 5.37763L9.79807 5.30452L9.83857 5.20712L9.87907 5.10972L9.88052 4.9663L9.88196 4.82288L9.84596 4.76687L9.80996 4.71087L9.74729 4.6745L9.68461 4.63812H9.54929L9.41396 4.63812L9.32183 4.67678L9.22971 4.71545L9.17623 4.76916L9.12275 4.82288L9.08075 4.91568L9.03875 5.00848L9.03081 5.15303L9.02287 5.29759L9.06198 5.36943L9.10108 5.44127L9.17652 5.47338L9.25196 5.50549L9.36126 5.50586Z" fill="#B3131B"/>
</g>
<defs>
<clipPath id="clip0_1305_1952">
<rect width="36" height="15" fill="white"/>
</clipPath>
</defs>
</svg>
