<svg width="40" height="32" viewBox="0 0 40 32" fill="none" xmlns="http://www.w3.org/2000/svg">
<g clip-path="url(#clip0_1305_1926)">
<path d="M9.90472 27.9738V26.3792C9.91424 26.2451 9.89436 26.1106 9.8464 25.9845C9.79843 25.8585 9.72348 25.7439 9.62654 25.6484C9.5296 25.5528 9.4129 25.4785 9.2842 25.4304C9.15551 25.3823 9.01778 25.3615 8.88019 25.3693C8.7001 25.3578 8.52013 25.3937 8.35909 25.4731C8.19805 25.5526 8.06183 25.6728 7.96466 25.8211C7.87609 25.6772 7.74935 25.5593 7.59781 25.4798C7.44627 25.4003 7.27554 25.3621 7.10363 25.3693C6.95377 25.3619 6.80453 25.3929 6.6707 25.4591C6.53688 25.5253 6.42311 25.6244 6.34068 25.7467V25.4331H5.77393V27.9738H6.34613V26.5759C6.33396 26.489 6.34162 26.4006 6.36856 26.3169C6.3955 26.2332 6.44105 26.1564 6.50197 26.0919C6.56289 26.0274 6.63766 25.9769 6.72094 25.9438C6.80422 25.9108 6.89396 25.8961 6.98373 25.9008C7.35976 25.9008 7.55049 26.14 7.55049 26.5706V27.9844H8.1227V26.5759C8.11103 26.4891 8.11903 26.4008 8.14616 26.3174C8.17328 26.2339 8.21886 26.1573 8.27967 26.0929C8.34048 26.0286 8.41505 25.978 8.4981 25.9448C8.58115 25.9116 8.67066 25.8966 8.7603 25.9008C9.14722 25.9008 9.33251 26.14 9.33251 26.5706V27.9844L9.90472 27.9738ZM18.3707 25.4331H17.4388V24.6624H16.8666V25.4331H16.3489V25.9381H16.8775V27.1074C16.8775 27.6974 17.1118 28.0482 17.7821 28.0482C18.0325 28.049 18.2781 27.9808 18.4905 27.8515L18.3271 27.3785C18.1751 27.4669 18.0026 27.5163 17.8257 27.522C17.5532 27.522 17.4497 27.3519 17.4497 27.0968V25.9381H18.3761L18.3707 25.4331ZM23.2044 25.3693C23.0663 25.3654 22.9295 25.3978 22.8087 25.4633C22.6878 25.5288 22.5873 25.6249 22.5178 25.7414V25.4331H21.9565V27.9738H22.5232V26.5493C22.5232 26.1294 22.7085 25.8955 23.0682 25.8955C23.1894 25.8939 23.3098 25.9156 23.4224 25.9593L23.5968 25.4278C23.4674 25.3826 23.331 25.3593 23.1935 25.3587L23.2044 25.3693ZM15.8965 25.6351C15.5757 25.449 15.2069 25.3568 14.8339 25.3693C14.1745 25.3693 13.744 25.6776 13.744 26.1825C13.744 26.5971 14.06 26.8523 14.6431 26.932L14.9156 26.9692C15.2262 27.0117 15.3734 27.0914 15.3734 27.235C15.3734 27.4316 15.1663 27.5432 14.7794 27.5432C14.4682 27.552 14.1629 27.4584 13.9129 27.2775L13.6404 27.708C13.9706 27.9328 14.366 28.0483 14.7685 28.0375C15.5205 28.0375 15.9565 27.6921 15.9565 27.2084C15.9565 26.7247 15.6132 26.528 15.0464 26.4483L14.7739 26.4111C14.5287 26.3792 14.3325 26.3314 14.3325 26.1613C14.3325 25.9912 14.5178 25.8636 14.8284 25.8636C15.1155 25.8669 15.397 25.9419 15.6459 26.0816L15.8965 25.6351ZM31.0764 25.3693C30.9382 25.3654 30.8015 25.3978 30.6806 25.4633C30.5598 25.5288 30.4593 25.6249 30.3897 25.7414V25.4331H29.8284V27.9738H30.3952V26.5493C30.3952 26.1294 30.5805 25.8955 30.9401 25.8955C31.0614 25.8939 31.1817 25.9156 31.2944 25.9593L31.4687 25.4278C31.3393 25.3826 31.2029 25.3593 31.0655 25.3587L31.0764 25.3693ZM23.7739 26.6981C23.7672 26.8767 23.7987 27.0546 23.8665 27.2206C23.9344 27.3865 24.037 27.5369 24.1678 27.662C24.2986 27.787 24.4547 27.8841 24.6262 27.9469C24.7976 28.0098 24.9807 28.037 25.1636 28.0269C25.5039 28.0438 25.8383 27.9357 26.1009 27.7239L25.8284 27.2775C25.6325 27.4232 25.3936 27.5034 25.1472 27.506C24.9377 27.4895 24.7423 27.3967 24.5998 27.246C24.4573 27.0953 24.3782 26.8978 24.3782 26.6928C24.3782 26.4878 24.4573 26.2903 24.5998 26.1396C24.7423 25.989 24.9377 25.8961 25.1472 25.8796C25.3936 25.8823 25.6325 25.9624 25.8284 26.1081L26.1009 25.6617C25.8383 25.4499 25.5039 25.3418 25.1636 25.3587C24.9807 25.3486 24.7976 25.3758 24.6262 25.4387C24.4547 25.5015 24.2986 25.5986 24.1678 25.7237C24.037 25.8487 23.9344 25.9991 23.8665 26.165C23.7987 26.331 23.7672 26.5089 23.7739 26.6875V26.6981ZM29.0818 26.6981V25.4331H28.5151V25.7414C28.4188 25.6206 28.2945 25.5239 28.1524 25.4592C28.0102 25.3945 27.8544 25.3637 27.6976 25.3693C27.3363 25.3693 26.9898 25.5093 26.7343 25.7585C26.4788 26.0077 26.3352 26.3457 26.3352 26.6981C26.3352 27.0505 26.4788 27.3885 26.7343 27.6377C26.9898 27.8869 27.3363 28.0269 27.6976 28.0269C27.8544 28.0326 28.0102 28.0018 28.1524 27.9371C28.2945 27.8724 28.4188 27.7756 28.5151 27.6549V27.9631H29.0818V26.6981ZM26.9728 26.6981C26.9819 26.5486 27.0356 26.4049 27.1273 26.2847C27.219 26.1645 27.3447 26.0731 27.489 26.0218C27.6333 25.9704 27.7899 25.9614 27.9394 25.9957C28.0889 26.03 28.2248 26.1063 28.3305 26.215C28.4362 26.3237 28.5069 26.4602 28.534 26.6077C28.5612 26.7551 28.5435 26.9071 28.4832 27.0449C28.4228 27.1827 28.3225 27.3002 28.1946 27.3831C28.0666 27.466 27.9166 27.5106 27.763 27.5113C27.6551 27.5127 27.5481 27.4922 27.4487 27.4513C27.3494 27.4103 27.2597 27.3497 27.1855 27.2733C27.1113 27.197 27.0541 27.1064 27.0175 27.0074C26.9809 26.9084 26.9657 26.8031 26.9728 26.6981ZM20.1336 25.3693C19.7723 25.3743 19.4277 25.519 19.1758 25.7717C18.9239 26.0244 18.7852 26.3643 18.7903 26.7167C18.7953 27.0691 18.9437 27.4052 19.2028 27.6509C19.4619 27.8966 19.8104 28.0318 20.1717 28.0269C20.5638 28.0465 20.9493 27.9234 21.2535 27.6814L20.981 27.2722C20.7658 27.4405 20.4993 27.534 20.2235 27.5379C20.0362 27.5536 19.8499 27.4974 19.7044 27.3813C19.5589 27.2652 19.4655 27.0983 19.4442 26.916H21.3788C21.3788 26.8469 21.3788 26.7779 21.3788 26.7034C21.3788 25.9062 20.872 25.3746 20.1418 25.3746L20.1336 25.3693ZM20.1336 25.8636C20.2184 25.8619 20.3027 25.8764 20.3818 25.9065C20.4608 25.9365 20.533 25.9814 20.5943 26.0387C20.6555 26.0959 20.7046 26.1644 20.7387 26.2402C20.7728 26.3159 20.7912 26.3975 20.793 26.4802H19.4306C19.4405 26.3096 19.5184 26.1495 19.6478 26.0343C19.7771 25.9191 19.9476 25.8578 20.1227 25.8636H20.1336ZM34.3325 26.7034V24.4126H33.7875V25.7414C33.6913 25.6206 33.567 25.5239 33.4248 25.4592C33.2827 25.3945 33.1269 25.3637 32.9701 25.3693C32.6088 25.3693 32.2622 25.5093 32.0067 25.7585C31.7512 26.0077 31.6077 26.3457 31.6077 26.6981C31.6077 27.0505 31.7512 27.3885 32.0067 27.6377C32.2622 27.8869 32.6088 28.0269 32.9701 28.0269C33.1269 28.0326 33.2827 28.0018 33.4248 27.9371C33.567 27.8724 33.6913 27.7756 33.7875 27.6549V27.9631H34.3325V26.7034ZM35.278 27.6044C35.3134 27.6039 35.3486 27.6103 35.3816 27.623C35.4128 27.6354 35.4415 27.6534 35.466 27.6761C35.49 27.699 35.5094 27.7261 35.5232 27.7558C35.537 27.7869 35.5442 27.8203 35.5442 27.8542C35.5442 27.888 35.537 27.9215 35.5232 27.9525C35.5094 27.9823 35.49 28.0093 35.466 28.0322C35.4415 28.0549 35.4128 28.0729 35.3816 28.0854C35.3489 28.0994 35.3137 28.1067 35.278 28.1066C35.2264 28.1063 35.1759 28.0916 35.1325 28.0643C35.089 28.037 35.0545 27.9982 35.0328 27.9525C35.0191 27.9214 35.0121 27.888 35.0121 27.8542C35.0121 27.8204 35.0191 27.7869 35.0328 27.7558C35.0467 27.7261 35.0661 27.699 35.09 27.6761C35.1145 27.6534 35.1432 27.6354 35.1745 27.623C35.21 27.6092 35.248 27.6029 35.2862 27.6044H35.278ZM35.278 28.0535C35.3052 28.0537 35.3321 28.0482 35.357 28.0375C35.3805 28.0273 35.4017 28.0129 35.4197 27.995C35.4538 27.9588 35.4727 27.9113 35.4727 27.8621C35.4727 27.8129 35.4538 27.7655 35.4197 27.7293C35.4018 27.7113 35.3805 27.6969 35.357 27.6867C35.3321 27.6761 35.3052 27.6707 35.278 27.6708C35.2508 27.6709 35.224 27.6764 35.199 27.6867C35.1745 27.6965 35.1523 27.711 35.1336 27.7293C35.0995 27.7655 35.0806 27.8129 35.0806 27.8621C35.0806 27.9113 35.0995 27.9588 35.1336 27.995C35.1523 28.0132 35.1745 28.0277 35.199 28.0375C35.2265 28.0491 35.2563 28.0546 35.2862 28.0535H35.278ZM35.2944 27.7372C35.3198 27.736 35.3449 27.7436 35.3652 27.7585C35.3735 27.7652 35.3801 27.7738 35.3844 27.7835C35.3887 27.7932 35.3905 27.8038 35.3897 27.8143C35.3901 27.8231 35.3886 27.8319 35.3853 27.8402C35.3821 27.8484 35.3771 27.8559 35.3707 27.8621C35.3549 27.8761 35.3347 27.8846 35.3134 27.8861L35.3925 27.9738H35.3298L35.2562 27.8861H35.2317V27.9738H35.1799V27.7399L35.2944 27.7372ZM35.2344 27.7824V27.8462H35.2944C35.305 27.8493 35.3164 27.8493 35.3271 27.8462C35.329 27.8425 35.33 27.8384 35.33 27.8342C35.33 27.8301 35.329 27.826 35.3271 27.8223C35.329 27.8186 35.33 27.8145 35.33 27.8103C35.33 27.8062 35.329 27.8021 35.3271 27.7984C35.3164 27.7953 35.305 27.7953 35.2944 27.7984L35.2344 27.7824ZM32.2371 26.7034C32.2462 26.5539 32.2999 26.4102 32.3916 26.29C32.4833 26.1698 32.609 26.0785 32.7533 26.0271C32.8976 25.9758 33.0542 25.9667 33.2037 26.001C33.3532 26.0353 33.4891 26.1116 33.5948 26.2203C33.7005 26.329 33.7712 26.4655 33.7983 26.613C33.8255 26.7605 33.8078 26.9124 33.7475 27.0502C33.6872 27.188 33.5868 27.3055 33.4589 27.3884C33.3309 27.4713 33.1809 27.5159 33.0273 27.5167C32.9194 27.518 32.8124 27.4975 32.7131 27.4566C32.6137 27.4156 32.524 27.355 32.4498 27.2787C32.3756 27.2023 32.3184 27.1117 32.2818 27.0127C32.2452 26.9137 32.23 26.8084 32.2371 26.7034ZM13.1009 26.7034V25.4331H12.5341V25.7414C12.4379 25.6206 12.3136 25.5239 12.1714 25.4592C12.0293 25.3945 11.8734 25.3637 11.7167 25.3693C11.3554 25.3693 11.0088 25.5093 10.7533 25.7585C10.4978 26.0077 10.3543 26.3457 10.3543 26.6981C10.3543 27.0505 10.4978 27.3885 10.7533 27.6377C11.0088 27.8869 11.3554 28.0269 11.7167 28.0269C11.8734 28.0326 12.0293 28.0018 12.1714 27.9371C12.3136 27.8724 12.4379 27.7756 12.5341 27.6549V27.9631H13.1009V26.7034ZM10.9919 26.7034C11.0009 26.5539 11.0546 26.4102 11.1463 26.29C11.2381 26.1698 11.3638 26.0785 11.5081 26.0271C11.6524 25.9758 11.8089 25.9667 11.9585 26.001C12.108 26.0353 12.2439 26.1116 12.3496 26.2203C12.4552 26.329 12.526 26.4655 12.5531 26.613C12.5802 26.7605 12.5625 26.9124 12.5022 27.0502C12.4419 27.188 12.3416 27.3055 12.2137 27.3884C12.0857 27.4713 11.9357 27.5159 11.7821 27.5167C11.6738 27.5187 11.5662 27.4988 11.4661 27.4582C11.3661 27.4176 11.2758 27.3571 11.201 27.2806C11.1262 27.2042 11.0685 27.1134 11.0316 27.014C10.9946 26.9147 10.9793 26.8089 10.9865 26.7034H10.9919Z" fill="#231F20"/>
<path d="M24.2914 6.07227H15.7083V21.1169H24.2914V6.07227Z" fill="#FF5F00"/>
<path d="M16.2533 13.5965C16.2517 12.1474 16.5882 10.7169 17.2373 9.41341C17.8864 8.10991 18.8311 6.96756 19.9999 6.07285C18.5528 4.96363 16.8149 4.27387 14.9849 4.08241C13.1549 3.89095 11.3065 4.2055 9.65115 4.99013C7.99575 5.77475 6.60008 6.99779 5.62364 8.51946C4.6472 10.0411 4.12939 11.8 4.12939 13.5951C4.12939 15.3903 4.6472 17.1492 5.62364 18.6708C6.60008 20.1925 7.99575 21.4155 9.65115 22.2002C11.3065 22.9848 13.1549 23.2993 14.9849 23.1079C16.8149 22.9164 18.5528 22.2267 19.9999 21.1174C18.8315 20.223 17.887 19.0811 17.2379 17.7781C16.5888 16.4751 16.2521 15.0451 16.2533 13.5965Z" fill="#EB001B"/>
<path d="M35.8719 13.5961C35.8719 15.3914 35.354 17.1504 34.3774 18.6721C33.4007 20.1938 32.0049 21.4168 30.3493 22.2014C28.6936 22.9859 26.8451 23.3002 25.015 23.1085C23.1849 22.9167 21.447 22.2267 20 21.1171C21.1679 20.2219 22.1121 19.0796 22.7614 17.7765C23.4107 16.4735 23.748 15.0436 23.748 13.5948C23.748 12.146 23.4107 10.7161 22.7614 9.41303C22.1121 8.10996 21.1679 6.96772 20 6.07249C21.447 4.96293 23.1849 4.27283 25.015 4.0811C26.8451 3.88936 28.6936 4.20371 30.3493 4.98822C32.0049 5.77274 33.4007 6.99575 34.3774 8.51747C35.354 10.0392 35.8719 11.7982 35.8719 13.5935V13.5961Z" fill="#F79E1B"/>
<path d="M34.9345 19.5225V19.2142H35.0625V19.1504H34.7383V19.2142H34.8772V19.5225H34.9345ZM35.5639 19.5225V19.1504H35.4658L35.3514 19.4161L35.2369 19.1504H35.1497V19.5225H35.2206V19.2434L35.3268 19.4852H35.4004L35.5067 19.2434V19.5251L35.5639 19.5225Z" fill="#F79E1B"/>
</g>
<defs>
<clipPath id="clip0_1305_1926">
<rect width="40" height="32" fill="white"/>
</clipPath>
</defs>
</svg>
