<svg width="34" height="12" viewBox="0 0 34 12" fill="none" xmlns="http://www.w3.org/2000/svg">
<g clip-path="url(#clip0_1305_1937)">
<path d="M14.7332 11.8268H11.979L13.7017 0.210449H16.4558L14.7332 11.8268Z" fill="#00579F"/>
<path d="M24.7178 0.494553C24.1745 0.259513 23.3129 0 22.2474 0C19.5275 0 17.6122 1.58171 17.6005 3.84309C17.5779 5.51153 18.9718 6.43822 20.0143 6.99453C21.0799 7.56299 21.4421 7.93403 21.4421 8.44074C21.4313 9.21895 20.5811 9.57767 19.7881 9.57767C18.6885 9.57767 18.0993 9.39272 17.2039 8.95976L16.8412 8.77416L16.4558 11.3818C17.1018 11.7027 18.2919 11.9875 19.5275 12C22.4175 12 24.2989 10.4428 24.3212 8.03291C24.3322 6.71054 23.5962 5.69729 22.0093 4.86931C21.046 4.33781 20.4561 3.97942 20.4561 3.43559C20.4674 2.9412 20.955 2.43482 22.0425 2.43482C22.9378 2.41002 23.5957 2.64473 24.0941 2.87961L24.3432 3.00296L24.7178 0.494553Z" fill="#00579F"/>
<path d="M28.3782 7.71152C28.605 7.04418 29.4778 4.46137 29.4778 4.46137C29.4664 4.48617 29.7042 3.78171 29.8402 3.34924L30.0327 4.35017C30.0327 4.35017 30.5542 7.13074 30.6675 7.71152C30.2371 7.71152 28.9222 7.71152 28.3782 7.71152ZM31.778 0.210449H29.6476C28.9906 0.210449 28.4915 0.420359 28.208 1.17426L24.1169 11.8266H27.0069C27.0069 11.8266 27.4827 10.3929 27.5849 10.0841C27.902 10.0841 30.7133 10.0841 31.1211 10.0841C31.2002 10.4919 31.4498 11.8266 31.4498 11.8266H33.9999L31.778 0.210449Z" fill="#00579F"/>
<path d="M9.67863 0.210449L6.98133 8.13167L6.68658 6.52515C6.1879 4.67144 4.62395 2.65743 2.87866 1.656L5.3493 11.8144H8.26183L12.591 0.210449H9.67863Z" fill="#00579F"/>
<path d="M4.47663 0.210449H0.045334L0 0.44516C3.45669 1.40914 5.74599 3.73276 6.68656 6.52564L5.72325 1.18691C5.56465 0.444996 5.07727 0.234922 4.47663 0.210449Z" fill="#FAA61A"/>
</g>
<defs>
<clipPath id="clip0_1305_1937">
<rect width="34" height="12" fill="white"/>
</clipPath>
</defs>
</svg>
