<svg width="19" height="14" viewBox="0 0 19 14" fill="none" xmlns="http://www.w3.org/2000/svg">
<mask id="mask0_808_5229" style="mask-type:alpha" maskUnits="userSpaceOnUse" x="-1" y="-4" width="21" height="21">
<rect x="-0.422057" y="-3.37779" width="20.2667" height="20.2667" fill="#D9D9D9"/>
</mask>
<g mask="url(#mask0_808_5229)">
<path d="M0 7.87444L0.422222 6.18556H5.06667L4.64444 7.87444H0ZM3.69444 12.7722C3.20185 12.2796 2.95556 11.6815 2.95556 10.9778H0.844444L1.26667 9.14111H5.63667L6.39667 6.05889H8.17L9.22556 1.83667H3.37778L3.50444 1.33C3.58889 0.935926 3.78241 0.615741 4.085 0.369444C4.38759 0.123148 4.74296 0 5.15111 0H14.7778L13.9967 3.37778H16.4667L19 6.75556L18.1556 10.9778H16.4667C16.4667 11.6815 16.2204 12.2796 15.7278 12.7722C15.2352 13.2648 14.637 13.5111 13.9333 13.5111C13.2296 13.5111 12.6315 13.2648 12.1389 12.7722C11.6463 12.2796 11.4 11.6815 11.4 10.9778H8.02222C8.02222 11.6815 7.77593 12.2796 7.28333 12.7722C6.79074 13.2648 6.19259 13.5111 5.48889 13.5111C4.78519 13.5111 4.18704 13.2648 3.69444 12.7722ZM1.68889 4.79222L2.11111 3.10333H7.6L7.17778 4.79222H1.68889ZM5.48889 11.8222C5.72815 11.8222 5.9287 11.7413 6.09056 11.5794C6.25241 11.4176 6.33333 11.217 6.33333 10.9778C6.33333 10.7385 6.25241 10.538 6.09056 10.3761C5.9287 10.2143 5.72815 10.1333 5.48889 10.1333C5.24963 10.1333 5.04907 10.2143 4.88722 10.3761C4.72537 10.538 4.64444 10.7385 4.64444 10.9778C4.64444 11.217 4.72537 11.4176 4.88722 11.5794C5.04907 11.7413 5.24963 11.8222 5.48889 11.8222ZM13.9333 11.8222C14.1726 11.8222 14.3731 11.7413 14.535 11.5794C14.6969 11.4176 14.7778 11.217 14.7778 10.9778C14.7778 10.7385 14.6969 10.538 14.535 10.3761C14.3731 10.2143 14.1726 10.1333 13.9333 10.1333C13.6941 10.1333 13.4935 10.2143 13.3317 10.3761C13.1698 10.538 13.0889 10.7385 13.0889 10.9778C13.0889 11.217 13.1698 11.4176 13.3317 11.5794C13.4935 11.7413 13.6941 11.8222 13.9333 11.8222ZM13.0256 7.6H17.1L17.1844 7.15667L15.6222 5.06667H13.6167L13.0256 7.6Z" fill="#F5BE4B"/>
</g>
</svg>
