<svg width="17" height="14" viewBox="0 0 17 14" fill="none" xmlns="http://www.w3.org/2000/svg">
<mask id="mask0_808_5218" style="mask-type:alpha" maskUnits="userSpaceOnUse" x="-2" y="-4" width="21" height="22">
<rect x="-1.69985" y="-3.40003" width="20.4002" height="20.4002" fill="#D9D9D9"/>
</mask>
<g mask="url(#mask0_808_5218)">
<path d="M8.50008 11.0501C8.74092 11.0501 8.9428 10.9686 9.10571 10.8057C9.26863 10.6428 9.35009 10.4409 9.35009 10.2001C9.35009 9.95926 9.26863 9.75739 9.10571 9.59447C8.9428 9.43155 8.74092 9.35009 8.50008 9.35009C8.25925 9.35009 8.05737 9.43155 7.89445 9.59447C7.73153 9.75739 7.65007 9.95926 7.65007 10.2001C7.65007 10.4409 7.73153 10.6428 7.89445 10.8057C8.05737 10.9686 8.25925 11.0501 8.50008 11.0501ZM8.50008 7.65007C8.74092 7.65007 8.9428 7.56862 9.10571 7.4057C9.26863 7.24278 9.35009 7.0409 9.35009 6.80007C9.35009 6.55923 9.26863 6.35735 9.10571 6.19444C8.9428 6.03152 8.74092 5.95006 8.50008 5.95006C8.25925 5.95006 8.05737 6.03152 7.89445 6.19444C7.73153 6.35735 7.65007 6.55923 7.65007 6.80007C7.65007 7.0409 7.73153 7.24278 7.89445 7.4057C8.05737 7.56862 8.25925 7.65007 8.50008 7.65007ZM8.50008 4.25004C8.74092 4.25004 8.9428 4.16858 9.10571 4.00566C9.26863 3.84275 9.35009 3.64087 9.35009 3.40003C9.35009 3.1592 9.26863 2.95732 9.10571 2.7944C8.9428 2.63148 8.74092 2.55002 8.50008 2.55002C8.25925 2.55002 8.05737 2.63148 7.89445 2.7944C7.73153 2.95732 7.65007 3.1592 7.65007 3.40003C7.65007 3.64087 7.73153 3.84275 7.89445 4.00566C8.05737 4.16858 8.25925 4.25004 8.50008 4.25004ZM15.3001 13.6001H1.70002C1.23251 13.6001 0.8323 13.4337 0.49938 13.1008C0.16646 12.7678 0 12.3676 0 11.9001V8.50008C0.467505 8.50008 0.867717 8.33362 1.20064 8.0007C1.53356 7.66778 1.70002 7.26757 1.70002 6.80007C1.70002 6.33256 1.53356 5.93235 1.20064 5.59943C0.867717 5.26651 0.467505 5.10005 0 5.10005V1.70002C0 1.23251 0.16646 0.8323 0.49938 0.49938C0.8323 0.16646 1.23251 0 1.70002 0H15.3001C15.7677 0 16.1679 0.16646 16.5008 0.49938C16.8337 0.8323 17.0002 1.23251 17.0002 1.70002V5.10005C16.5327 5.10005 16.1324 5.26651 15.7995 5.59943C15.4666 5.93235 15.3001 6.33256 15.3001 6.80007C15.3001 7.26757 15.4666 7.66778 15.7995 8.0007C16.1324 8.33362 16.5327 8.50008 17.0002 8.50008V11.9001C17.0002 12.3676 16.8337 12.7678 16.5008 13.1008C16.1679 13.4337 15.7677 13.6001 15.3001 13.6001Z" fill="#F5BE4B"/>
</g>
</svg>
