<svg width="44" height="44" viewBox="0 0 44 44" fill="none" xmlns="http://www.w3.org/2000/svg">
<rect width="44" height="44" rx="22" fill="#AA1E1E"/>
<path d="M27.5 16.5H27.51M17 12H27C29.7614 12 32 14.2386 32 17V27C32 29.7614 29.7614 32 27 32H17C14.2386 32 12 29.7614 12 27V17C12 14.2386 14.2386 12 17 12ZM26 21.37C26.1234 22.2022 25.9813 23.0522 25.5938 23.799C25.2063 24.5458 24.5931 25.1514 23.8416 25.5297C23.0901 25.9079 22.2384 26.0396 21.4078 25.9059C20.5771 25.7723 19.8098 25.3801 19.2148 24.7852C18.6199 24.1902 18.2277 23.4229 18.0941 22.5922C17.9604 21.7616 18.0921 20.9099 18.4703 20.1584C18.8486 19.4069 19.4542 18.7937 20.201 18.4062C20.9478 18.0187 21.7978 17.8766 22.63 18C23.4789 18.1259 24.2649 18.5215 24.8717 19.1283C25.4785 19.7351 25.8741 20.5211 26 21.37Z" stroke="white" stroke-width="2" stroke-linecap="round" stroke-linejoin="round"/>
</svg>
