<svg width="60" height="60" viewBox="0 0 60 60" fill="none" xmlns="http://www.w3.org/2000/svg">
<g clip-path="url(#clip0_1137_2394)">
<path fill-rule="evenodd" clip-rule="evenodd" d="M28.7472 6.60654C28.7393 6.74853 28.7313 7.10216 28.8107 7.16914C28.9139 7.23076 28.9324 7.41829 28.9536 7.49866C28.9536 7.58171 29.1573 7.56028 29.1573 7.49866C29.1362 7.43704 29.1573 7.20932 29.3399 7.23076C29.5436 7.23076 29.6256 7.23076 29.6045 7.29237V7.35399H29.3399C29.3399 7.35399 29.2182 7.33256 29.279 7.49866H29.6151C29.6151 7.49866 29.7288 8.46848 28.8107 7.70495C28.8107 7.70495 28.7975 7.69423 28.7763 7.67816C28.7922 7.53349 28.7816 7.39418 28.7499 7.29237C28.689 7.12627 28.6678 6.83694 28.689 6.69227C28.689 6.65744 28.7102 6.62797 28.7472 6.60654Z" fill="white"/>
<path fill-rule="evenodd" clip-rule="evenodd" d="M28.1572 6.27969L29.4827 6.15646C29.4827 6.15646 29.6256 6.13503 29.6044 6.27969C29.6044 6.42436 28.2789 6.48598 28.1545 6.48598C28.0116 6.48598 27.9508 6.36275 28.1545 6.27969" fill="white"/>
<path fill-rule="evenodd" clip-rule="evenodd" d="M23.8418 22.8925C24.0773 23.5569 24.1858 24.2749 24.4927 24.8964C24.0191 24.9018 23.4846 24.7276 22.9978 24.7062C22.9846 24.583 22.9846 24.4329 22.9978 24.3499C22.9899 24.2052 23.0692 24.1248 23.1063 24.015C23.2253 23.6373 23.3418 23.2702 23.4952 22.8925C23.6011 22.6514 23.7519 22.7023 23.8445 22.8925M22.077 20.5751C22.0797 20.7573 22.294 20.977 22.3019 21.5583C22.4819 20.7814 22.4607 20.1331 22.0638 19.7285C22.0665 20.0098 22.0718 20.2911 22.0744 20.5751H22.077ZM35.645 24.6124C35.6476 24.7571 35.6529 24.9018 35.6556 25.0464C35.4624 25.0732 35.3804 25.2072 35.1264 25.1295C35.1237 24.741 35.1185 24.3526 35.1158 23.9641C35.1581 23.6989 35.2481 23.4792 35.1317 23.1229C35.0814 22.9273 35.0602 22.7076 35.1211 22.4987C35.2693 22.7264 35.4492 23.0559 35.4465 23.3801C35.4201 23.5944 35.3857 23.7364 35.5391 24.0043C35.6556 24.2347 35.6529 24.3794 35.6476 24.6097L35.645 24.6124ZM27.546 36.92C27.546 36.92 28.8716 37.1879 30.0146 37.2709C30.9327 37.3111 31.7503 37.1879 31.7503 37.1879C31.7503 37.1879 34.7507 33.3435 38.6057 29.7696C41.5452 27.0638 45.604 24.3767 45.604 24.3767C45.604 24.3767 42.3998 25.7189 37.9522 28.8185C33.3801 32.0012 27.546 36.9173 27.546 36.9173V36.92ZM44.4821 24.5026C44.4821 24.5026 39.8704 25.2661 34.4834 27.6022C34.0945 27.771 33.7003 27.9478 33.3087 28.13L32.597 28.4622C31.9937 28.7489 31.3878 29.0463 30.7898 29.3463C30.3215 29.5955 30.6893 29.3999 30.258 29.6169C25.7548 31.9182 21.8098 34.3588 21.8098 34.3588C21.8098 34.3588 22.8099 35.0205 23.7492 35.5162C24.5853 35.9502 25.342 36.2609 25.342 36.2609C25.342 36.2609 29.8929 32.2102 35.4227 28.8239C39.0766 26.5922 44.4821 24.5053 44.4821 24.5053V24.5026ZM17.6082 30.576C17.6082 30.576 16.5472 28.9016 15.8725 27.2084C15.383 25.9278 15.219 24.5026 15.219 24.5026C15.219 24.5026 16.1794 25.309 17.2193 26.26C18.6692 27.6022 20.3414 29.2365 20.3414 29.2365L17.6082 30.5787V30.576ZM21.2198 28.7596L22.4845 28.2211C22.4845 28.2211 20.1985 26.7744 18.1585 25.6599C16.7721 24.8964 15.3433 24.2963 15.3433 24.2963C15.3433 24.2963 16.6504 25.1643 18.0157 26.1984C19.5661 27.3772 21.2198 28.7596 21.2198 28.7596ZM45.8077 24.5642C45.8077 24.5642 45.1145 28.923 42.1538 32.2102C38.0527 36.3842 34.2771 36.8584 34.2771 36.8584C34.2771 36.8584 37.2775 32.7675 40.5424 29.2954C42.8893 26.7959 45.8077 24.5642 45.8077 24.5642ZM16.0895 24.4035C16.0895 24.4035 18.6401 24.942 21.0875 25.684C23.0666 26.2842 25.006 27.1093 25.006 27.1093L23.3523 27.7094C23.3523 27.7094 21.495 26.7182 19.6799 25.8903C17.8648 25.0652 16.0895 24.4035 16.0895 24.4035ZM32.171 17.0843C32.29 17.0736 32.4091 17.0441 32.5017 17.012C32.3879 17.0495 32.2715 17.0736 32.171 17.0843ZM37.5235 12.6424C37.5235 12.6826 37.5447 12.8085 37.5447 12.9934C37.5447 13.4381 37.4283 14.1159 36.8356 14.2633C36.7827 14.2767 36.7827 14.2767 36.7298 14.2874C36.5366 14.3142 36.3567 14.3142 36.1768 14.3142C34.9332 14.3142 33.7902 13.84 33.3007 13.6122C33.2187 13.6337 33.1367 13.6524 33.0362 13.6953C33.3616 13.8802 34.6898 14.5204 36.1794 14.5204C36.4043 14.5204 36.6081 14.499 36.833 14.4803C37.6294 14.3142 37.7299 13.4676 37.7299 12.9934C37.7299 12.8085 37.7299 12.6639 37.7087 12.621C37.6479 12.6424 37.587 12.6424 37.5262 12.6424H37.5235ZM20.0715 32.9148C20.0715 32.9148 19.746 32.5853 19.418 32.2531C19.0925 31.8807 18.7247 31.5083 18.7247 31.5083C18.7247 31.5083 21.8257 29.3383 26.3369 27.5219C27.7947 26.9378 29.7738 26.3699 31.3984 25.9439L31.9434 25.8019C33.3246 25.451 34.3353 25.2286 34.3353 25.2286C34.3353 25.2286 34.3353 25.0223 34.2533 24.8991C34.1924 24.7759 34.3564 24.3204 34.3353 24.0927C34.2956 23.8435 34.2533 23.4095 34.1315 23.2032C33.9887 22.997 33.7849 21.7351 33.7241 21.5905C33.7241 21.5905 34.1924 21.5905 33.9887 21.4458C33.8061 21.3011 31.745 20.9502 30.9883 21.052C30.2527 21.135 30.049 21.2797 29.6018 21.3815C29.1335 21.486 28.9272 21.3601 28.8663 21.6494C28.7843 21.9173 28.6837 21.7726 28.5197 21.5047C28.3768 21.2556 28.2736 21.3601 28.0699 21.3199C27.845 21.2583 27.1518 21.0707 26.9269 20.9689C26.702 20.8859 26.4374 20.8457 26.2522 20.9689C26.0882 21.1136 25.8633 21.135 25.6595 21.2368C25.4558 21.3413 25.2521 21.6306 25.2521 22.0647C25.2732 22.4772 25.1304 22.4156 25.0695 22.788C24.9875 23.1818 25.0695 24.5455 25.3341 24.8134C25.5802 25.1027 25.8633 25.1643 26.3951 25.2259C26.9269 25.2875 29.2526 25.9064 29.2526 25.9064C29.2526 25.9064 28.6414 26.0109 28.0699 26.1743C27.4772 26.3404 26.9269 26.5681 26.9269 26.5681C26.9269 26.5681 23.4582 25.4724 20.6615 24.8937C17.886 24.3151 15.7852 24.2749 15.7852 24.2749C15.7852 24.2749 16.8065 24.2132 18.6004 24.2749C19.8863 24.3365 22.13 24.5428 22.13 24.5428C22.13 24.5428 22.1511 24.1088 22.13 24.007C22.1088 23.9239 22.1511 23.6774 22.1908 23.4685C22.2517 23.2836 22.1908 22.7237 22.1908 22.7237C22.1908 22.7237 21.7834 23.2809 21.7225 23.2622C21.6828 23.2408 21.7437 22.8067 21.7225 22.5174C21.7013 22.2495 21.6828 22.0004 21.7225 21.711C21.7622 21.4217 21.8257 21.3386 21.8654 20.9662C21.8865 20.5939 21.8442 20.0982 21.7834 19.8303C21.7437 19.5624 21.7437 18.3006 21.7834 17.805C21.8442 17.2879 21.8045 16.5458 21.7834 16.2565C21.7834 15.9457 21.7437 15.2867 22.13 14.6865C22.4977 14.1079 23.3338 14.0061 23.7836 13.9632C24.2334 13.9016 25.3341 13.6524 25.9876 13.6739C26.6411 13.7141 28.0064 13.6953 28.2525 13.8802C28.2789 13.9043 28.3371 13.915 28.4192 13.9203C28.4959 13.9873 28.5832 14.0489 28.6864 14.1052C29.5648 14.5794 31.4222 14.5794 31.4222 14.5794C31.4222 14.5794 31.4222 15.0536 31.483 15.7984C31.5439 16.5217 31.6048 17.0173 31.6048 17.0173C31.6048 17.0173 31.7503 17.0602 31.9302 17.0763C31.8429 17.0682 31.7582 17.0548 31.6788 17.0361C31.6788 17.2424 31.7053 17.679 31.6841 17.7407C31.6444 17.8451 31.7873 18.0702 32.0731 18.0916C32.38 18.0916 32.8483 18.0514 33.0732 17.947C33.2981 17.8639 33.523 17.7407 33.2769 17.6174C33.052 17.5129 32.6261 17.2745 32.5043 17.0066C32.6128 16.9718 32.6869 16.937 32.6869 16.937C32.6869 16.937 32.7266 14.0248 32.6896 13.8453C32.7319 13.856 32.7742 13.856 32.8113 13.8453C32.9224 13.8051 32.9806 13.7408 33.0018 13.6658C33.2981 13.5587 33.5177 13.489 33.5177 13.489C33.5177 13.489 35.5577 12.8273 35.7826 12.6639C35.7826 12.6639 36.2932 12.5808 36.7218 12.6022C37.1505 12.6237 37.6188 12.6639 37.7828 12.5406C37.9654 12.4174 37.9257 12.3558 38.1294 12.3343C38.312 12.3129 38.4549 12.2942 38.6612 12.1281C38.865 11.9834 39.2328 11.6941 39.7831 11.7985C40.3546 11.903 40.9473 12.3156 41.1907 12.6665C41.1907 12.6665 41.5373 12.771 41.8654 12.8112C42.1723 12.8514 42.212 12.9157 42.0691 13.0791C41.9051 13.2452 41.823 13.3899 41.6616 13.4917C41.3547 13.3685 41.5796 13.6765 41.7225 13.9659C41.8865 14.2338 42.5586 15.0804 42.6618 15.1634C42.7438 15.2679 42.765 15.5572 42.5189 15.7823C42.294 15.9886 42.2728 16.1332 41.9262 16.1761C41.5796 16.2377 41.3547 16.1145 41.1907 16.0529C41.0266 15.9698 40.9049 15.868 40.7224 16.0529C40.5398 16.219 40.3758 16.302 40.1932 16.3824C40.0106 16.4654 39.5185 16.8378 39.4576 17.0012C39.3968 17.1459 38.8861 17.8076 38.7221 17.9309C38.5792 18.0755 38.3332 18.5926 38.3967 18.614C38.4575 18.6355 38.6612 18.3649 38.7221 18.2845C38.783 18.18 38.9258 18.0782 38.9258 18.0782C38.9258 18.0782 38.8041 19.2758 38.6004 19.482C38.3967 19.7098 38.1109 19.9375 37.9892 20.1652C37.8675 20.4144 37.5209 20.8885 37.3357 21.0546C37.1319 21.1993 36.8859 21.6735 36.7853 21.9227C36.7033 22.1718 36.5604 22.6031 36.6028 22.8737C36.6239 23.1416 36.4996 23.9695 36.4599 24.0927C36.4202 24.2159 36.3779 24.816 36.4599 24.816C36.4996 24.8375 38.8465 24.5053 41.0716 24.3606C43.1116 24.2159 45.0721 24.2159 45.0721 24.2159C45.0721 24.2159 38.603 24.8964 33.1949 26.7771C32.7769 26.9244 32.3588 27.0745 31.9461 27.2299L31.401 27.4388C31.1973 27.5165 30.9936 27.5969 30.7925 27.6773C30.5305 27.7791 30.7422 27.688 30.2607 27.8916C24.6276 30.1929 20.0715 32.9121 20.0715 32.9121V32.9148Z" fill="white"/>
<path fill-rule="evenodd" clip-rule="evenodd" d="M51.0887 58.189C51.3242 58.189 51.5147 58.3819 51.5147 58.6203C51.5147 58.8587 51.3242 59.0516 51.0887 59.0516C50.8532 59.0516 50.6627 58.8587 50.6627 58.6203C50.6627 58.3819 50.8532 58.189 51.0887 58.189ZM8.98262 58.189C9.2181 58.189 9.40861 58.3819 9.40861 58.6203C9.40861 58.8587 9.2181 59.0516 8.98262 59.0516C8.74714 59.0516 8.55664 58.8587 8.55664 58.6203C8.55664 58.3819 8.74714 58.189 8.98262 58.189ZM46.1013 59.9571V57.2915H47.9163V57.7469H46.6305V58.3658H47.7311V58.8212H46.6305V59.9571H46.0986H46.1013ZM42.6326 59.9571V57.2915H44.572V57.7469H43.1644V58.3256H44.49V58.781H43.1644V59.5044H44.6328V59.9598H42.6326V59.9571ZM39.1639 59.9571V57.2915H41.1033V57.7469H39.6957V58.3256H41.0213V58.781H39.6957V59.5044H41.1641V59.9598H39.1639V59.9571ZM36.0206 58.781V59.5044H36.5101C36.6926 59.5044 36.817 59.5044 36.8567 59.4829C36.9387 59.4615 36.9996 59.4428 37.0604 59.3785C37.1001 59.3168 37.1424 59.2552 37.1424 59.1507C37.1424 59.0677 37.1213 59.0061 37.0816 58.9445C37.0419 58.8828 36.9784 58.84 36.9175 58.8212C36.8355 58.7998 36.6715 58.781 36.4492 58.781H36.0206ZM36.0206 57.7469V58.347H36.735C36.8382 58.3256 36.899 58.3068 36.9599 58.2425C36.9996 58.2024 37.0419 58.1193 37.0419 58.0363C37.0419 57.9532 37.0207 57.8916 36.9599 57.83C36.9202 57.7898 36.8567 57.7469 36.7773 57.7469H36.0232H36.0206ZM35.4888 57.2942H36.5286C36.7323 57.2942 36.8964 57.3156 36.9969 57.3156C37.1001 57.337 37.1795 57.3772 37.2615 57.4388C37.3435 57.479 37.4044 57.5621 37.4652 57.6451C37.5261 57.7496 37.5472 57.8514 37.5472 57.9559C37.5472 58.0791 37.5076 58.205 37.4467 58.3068C37.3859 58.4113 37.3038 58.4917 37.1821 58.5346C37.3462 58.5747 37.4679 58.6578 37.5499 58.7837C37.6319 58.8882 37.6716 59.0329 37.6716 59.1775C37.6716 59.3008 37.6504 59.4267 37.5896 59.5285C37.5287 59.6517 37.4679 59.7348 37.3647 59.8178C37.2615 59.8794 37.161 59.9223 37.0181 59.9411C36.9149 59.9411 36.7112 59.9411 36.3646 59.9625H35.4861V57.2968L35.4888 57.2942ZM31.348 59.9571V57.2915H31.8798V59.9571H31.348ZM29.2657 57.2942H29.7975V58.9873C29.7975 59.1936 29.7975 59.3597 29.7579 59.4829C29.697 59.649 29.615 59.7723 29.4721 59.8553C29.3292 59.9598 29.1652 60 28.9403 60C28.6757 60 28.4905 59.9169 28.3476 59.7723C28.2047 59.6276 28.1227 59.4213 28.1227 59.132L28.6334 59.0704C28.6334 59.2365 28.6545 59.3383 28.6942 59.3999C28.7551 59.4829 28.8371 59.5446 28.9588 59.5446C29.062 59.5446 29.1625 59.5044 29.2049 59.4401C29.2446 59.357 29.2657 59.2338 29.2657 59.0061V57.2915V57.2942ZM26.0404 58.9043L25.6727 57.913L25.3261 58.9043H26.0404ZM27.0009 59.9571H26.4294L26.2045 59.3383H25.1647L24.9398 59.9571H24.3894L25.3896 57.2915H25.9611L27.0009 59.9571ZM20.9604 59.9571V57.2915H21.4922V58.3443H22.532V57.2915H23.0612V59.9571H22.532V58.7784H21.4922V59.9571H20.9604Z" fill="white"/>
<path fill-rule="evenodd" clip-rule="evenodd" d="M43.9476 8.08805L43.2385 8.5301L43.5005 7.71834L42.8522 7.18253H43.6724L43.9291 6.38686L44.1804 7.18253H45.0271L44.3577 7.74246L44.5985 8.50866L43.9476 8.08537V8.08805ZM16.8885 8.08805L16.1794 8.5301L16.4413 7.71834L15.7931 7.18253H16.6133L16.87 6.38686L17.1213 7.18253H17.968L17.2986 7.74246L17.5394 8.50866L16.8885 8.08537V8.08805Z" fill="white"/>
<path fill-rule="evenodd" clip-rule="evenodd" d="M28.7234 6.62261C28.8186 6.54224 29.0832 6.53152 29.279 6.5476C29.3134 6.55563 29.3478 6.55831 29.3742 6.55563C29.4113 6.55563 29.4404 6.5476 29.4615 6.53688C29.4615 6.57439 29.4827 6.59314 29.4827 6.61189C29.5039 6.75656 29.6864 6.98428 29.7473 7.02447C29.8082 7.06465 29.7473 7.1477 29.6864 7.16914C29.6044 7.16914 29.6256 7.1477 29.6044 7.23075C29.6044 7.27094 29.6124 7.3915 29.6124 7.51741H29.2631L29.2578 7.5067C29.2314 7.43168 29.2287 7.32988 29.3372 7.33524H29.5833V7.28701C29.6018 7.23343 29.3584 7.24951 29.3345 7.24951C29.2049 7.23611 29.1388 7.3915 29.1731 7.49866C29.1731 7.58707 28.9297 7.6085 28.9324 7.50134C28.9086 7.40489 28.89 7.23879 28.7948 7.18253C28.7101 7.11288 28.7154 6.79675 28.7207 6.64672C28.7207 6.63601 28.7207 6.62797 28.7207 6.61993" fill="#C57D29"/>
<path fill-rule="evenodd" clip-rule="evenodd" d="M32.0783 13.2479C32.0783 13.2479 32.417 13.7757 32.6921 13.848V13.8668C32.7345 13.8775 32.7821 13.8721 32.8191 13.8587C32.9302 13.8185 33.0043 13.7435 33.0202 13.6605L33.0017 13.6658C33.0255 13.5506 32.9699 13.406 32.872 13.3068C32.7292 13.1407 32.4434 12.8514 32.4222 12.8326C32.4011 12.8112 32.0756 13.2452 32.0756 13.2452M32.5069 17.0093C32.5069 17.0093 32.5043 17.0093 32.5016 17.0093C32.3799 17.0495 32.2582 17.0763 32.155 17.0816C32.0121 17.0897 31.8375 17.0736 31.692 17.0388C31.692 17.0388 31.6867 17.0388 31.6841 17.0388C31.6788 17.0388 31.6761 17.0388 31.6629 17.0334C31.6629 17.1513 31.6946 17.663 31.6708 17.7353C31.5941 17.9309 31.9116 18.1023 32.0756 18.1131C32.3535 18.1131 32.8376 18.0809 33.0837 17.9657C33.2319 17.9121 33.5944 17.7541 33.2901 17.5987C33.0467 17.4862 32.6419 17.2504 32.5254 16.9959C32.5254 16.9905 32.5096 17.0093 32.5069 17.0039V17.0093Z" fill="#C57D29"/>
<path fill-rule="evenodd" clip-rule="evenodd" d="M28.4191 13.9257C27.8581 13.4354 27.9534 12.6826 27.9534 12.6826V10.0572C27.9534 10.0572 27.9534 9.99285 27.9772 9.90177C28.083 9.77049 28.2074 9.59368 28.2788 9.52134C28.4217 9.39811 28.4826 9.10877 28.4826 8.98285C28.4826 8.83818 28.5857 8.28094 28.6863 8.03179C28.7339 7.91391 28.7657 7.78264 28.7762 7.65672L28.8212 7.68619C28.8927 7.74513 29.0408 7.86569 29.189 7.92999C29.1678 7.94338 29.1572 7.9541 29.1572 7.96749C29.1467 8.00768 29.1281 8.1202 29.1096 8.22468C29.1705 8.25951 29.2287 8.30505 29.279 8.36131C29.5039 8.61046 29.7684 8.8355 29.8716 9.25076C29.9933 9.64458 30.3003 10.6974 30.6892 11.1315C31.0781 11.5869 32.0359 12.3906 32.282 12.6183C32.282 12.6183 32.4249 12.763 32.4249 12.8246C32.4037 12.8862 32.0571 13.28 32.0174 13.2988C31.9777 13.3202 31.7714 13.3604 31.4856 13.1541C31.1998 12.9693 30.1997 12.1013 29.8743 11.4797C29.8743 11.4797 29.6282 11.2118 29.7526 11.603C29.7526 11.603 30.2817 12.554 30.8744 13.0282C31.4856 13.5024 32.1603 13.5024 32.1603 13.5024C32.1603 13.5024 32.245 13.5212 32.3429 13.5774C32.4566 13.6417 32.4646 13.6685 32.5916 13.7516L32.6577 13.7917C32.6577 13.7917 32.6842 13.8051 32.7053 13.8185C32.7556 13.8694 32.7159 16.5994 32.7106 16.9316V16.945L32.7 16.9503C32.6471 16.9771 32.5836 17.0012 32.5175 17.0227C32.5228 17.0388 32.5254 17.0521 32.5281 17.0575C32.2264 17.1379 31.9513 17.1406 31.6893 17.0816L31.6946 17.0602C31.6629 17.0521 31.6311 17.0441 31.602 17.0361H31.5888V17.02C31.5359 16.6181 31.4988 16.2056 31.4671 15.801C31.4353 15.4072 31.4062 14.9973 31.4062 14.6008C30.6442 14.6008 29.3478 14.4803 28.6836 14.1239C28.5805 14.0677 28.4852 14.0007 28.4005 13.9203H28.4243L28.4191 13.9257Z" fill="#CCCCCC"/>
<path fill-rule="evenodd" clip-rule="evenodd" d="M15.2216 23.5515V21.7941C15.2216 21.7941 14.957 21.4833 14.957 21.194C14.957 20.9448 15.2216 20.7198 15.2216 20.7198V19.975C15.2216 19.975 15.0179 19.6455 15.0179 19.3749C15.0179 19.0454 15.2216 18.756 15.2216 18.756V18.0943H15.0179V17.888H15.2216V17.4138C15.2216 17.4138 14.8142 17.3093 15.0787 17.0843V16.878H15.0179V16.6717C15.0179 16.6717 15.2216 16.2779 15.4253 16.2779C15.6079 16.2779 15.8143 16.6717 15.8143 16.6717V16.9396H15.7534V17.0843C15.7534 17.0843 15.8963 17.1888 15.8751 17.2906C15.8751 17.3522 15.6926 17.4138 15.6926 17.4138V17.888H15.8751V18.0943H15.6926V18.756C15.6926 18.756 15.7746 18.9007 15.8143 19.0454C15.8751 19.19 15.8751 19.3749 15.8751 19.3749C15.8751 19.3749 15.8963 19.541 15.8143 19.7044C15.7534 19.8491 15.6106 19.9723 15.6106 19.9723V20.7171C15.6106 20.7171 15.8751 20.9448 15.8751 21.1913C15.8963 21.4806 15.6926 21.7914 15.6926 21.7914V23.5489H15.2243L15.2216 23.5515ZM16.4255 23.5515H17.2219V23.1577H17.4865V23.0961H17.5473V22.9514H17.4256V22.6835H17.2219V22.5388C17.2219 22.5388 17.7114 22.2093 17.6108 21.7941C17.5076 21.3815 16.8144 20.8644 16.8144 20.8644C16.8144 20.8644 16.2032 21.3601 16.0789 21.7941C15.9969 22.145 16.4255 22.4746 16.4255 22.4746V22.6808H16.2217V22.9487H16.0789V23.0934H16.1609V23.155H16.4255V23.5489V23.5515ZM17.8119 23.6346C17.8119 23.6346 19.0766 23.6346 20.2196 23.6962C21.1801 23.7364 22.0162 23.8194 22.0162 23.8194C22.0162 23.8194 21.995 23.715 21.8733 23.6346C21.7701 23.5515 21.8124 23.2836 21.7516 23.2836C21.6907 23.3051 21.0769 23.2836 21.0769 23.2836C21.0769 23.2836 21.016 23.1791 21.1589 23.0988C21.1986 23.0586 21.8124 22.3138 21.5479 21.6735C21.3441 21.135 20.8335 20.7225 20.426 20.3313C20.0794 20.0018 19.8148 19.7125 19.8148 19.7125C19.8148 19.7125 19.5899 20.042 19.2221 20.3956C18.8332 20.7466 18.304 21.119 18.1612 21.5315C17.8357 22.421 18.5501 23.1631 18.5501 23.1631C18.5501 23.1631 18.611 23.2675 18.5501 23.2863C18.4892 23.3077 17.9574 23.2863 17.9574 23.2863C17.9574 23.2863 17.7537 23.3694 17.8146 23.6373L17.8119 23.6346ZM43.2174 23.6346C43.2174 23.6346 41.9527 23.6346 40.8097 23.6962C39.8519 23.7364 39.0131 23.8194 39.0131 23.8194C39.0131 23.8194 39.0343 23.715 39.156 23.6346C39.2592 23.5515 39.2169 23.2836 39.2777 23.2836C39.3386 23.3051 39.9524 23.2836 39.9524 23.2836C39.9524 23.2836 40.0133 23.1791 39.8704 23.0988C39.8307 23.0586 39.2169 22.3138 39.4814 21.6735C39.6852 21.135 40.1958 20.7225 40.6033 20.3313C40.9499 20.0018 41.2145 19.7125 41.2145 19.7125C41.2145 19.7125 41.4394 20.042 41.8071 20.3956C42.1961 20.7466 42.7253 21.119 42.8681 21.5315C43.1936 22.421 42.4818 23.1631 42.4818 23.1631C42.4818 23.1631 42.421 23.2675 42.4818 23.2863C42.5427 23.3077 43.0745 23.2863 43.0745 23.2863C43.0745 23.2863 43.2782 23.3694 43.2174 23.6373V23.6346ZM36.4361 24.2052C37.5341 24.0472 38.3411 23.9668 38.3411 23.9668C38.3411 23.9668 38.484 23.9266 38.4231 23.8221C38.3411 23.7391 38.3411 23.4497 38.3411 23.4283C38.3622 23.3881 38.4019 23.4497 38.4231 23.3667H38.6057V23.222H38.5448V23.0157H38.3411V22.9541C38.3411 22.9541 38.7485 22.6862 38.6877 22.354C38.6268 22.0245 38.0765 21.6092 38.0765 21.6092C38.0765 21.6092 37.5658 21.9816 37.4838 22.2709C37.4018 22.6219 37.7484 22.9541 37.7484 22.9541V23.0157H37.6055V23.222H37.5447V23.3667H37.7484V23.9025H37.1557V21.8771C37.1557 21.8771 37.3383 21.628 37.2774 21.1323L37.2483 21.127C37.0658 21.3199 36.87 21.7057 36.7827 21.92C36.7006 22.1691 36.5578 22.6005 36.6001 22.8711C36.6213 23.139 36.4969 23.9668 36.4572 24.09C36.4493 24.1141 36.4414 24.1543 36.4361 24.2025V24.2052ZM25.133 24.2722C25.9135 24.3874 26.8396 24.5401 27.6862 24.7089C29.2367 25.0196 30.4829 25.4537 30.4829 25.4537C30.4829 25.4537 32.3588 24.9554 34.2718 24.5696C34.3035 24.4035 34.3458 24.2159 34.3353 24.0927C34.2956 23.8435 34.2532 23.4095 34.1315 23.2033C33.9886 22.997 33.7849 21.7351 33.7241 21.5905C33.7241 21.5905 34.1924 21.5905 33.9887 21.4458C33.8987 21.3761 33.3642 21.2556 32.7504 21.1645C32.6234 21.3627 32.5176 21.5824 32.4832 21.7941C32.3614 22.5388 32.9515 23.2809 32.9515 23.2809H32.2159V23.6319H31.7476V23.8998H31.3401V21.7914C31.3401 21.7914 31.565 21.5637 31.5439 21.336C31.5359 21.2234 31.4804 21.1163 31.4222 21.0305C31.2528 21.0279 31.1047 21.0305 30.9883 21.0493C30.9486 21.0547 30.9115 21.0573 30.8771 21.0627C30.8189 21.1029 30.7713 21.1484 30.7501 21.1913C30.6284 21.4404 30.8718 21.7298 30.8718 21.7298V23.8998H30.2183V23.364H30.4829V23.2193H30.422V23.013H30.2183V22.8898C30.2183 22.8898 30.6073 22.6407 30.5437 22.354C30.4829 22.003 29.9511 21.6092 29.9511 21.6092C29.9511 21.6092 29.4219 21.9602 29.3399 22.2709C29.2579 22.6005 29.6045 22.8898 29.6045 22.8898V23.013H29.4828V23.2193H29.4219V23.364H29.6045V23.8998H29.3399C29.3399 23.8998 29.3796 23.8382 29.3399 23.7551C29.3187 23.6935 29.2182 23.6319 29.2182 23.6319H28.8107V23.4256C28.8107 23.4256 28.8107 23.3211 28.689 23.2809C28.4853 23.2408 28.1572 23.2809 28.1572 23.2809V23.1577C28.1572 23.1577 28.5647 22.7237 28.607 22.2683C28.6678 21.8343 28.3424 21.4003 28.3424 21.4003C28.3424 21.4003 28.2974 21.3735 28.218 21.3333C28.1757 21.3333 28.1281 21.3333 28.0725 21.3226C27.8476 21.2609 27.1544 21.0734 26.9295 20.9716C26.7046 20.8886 26.44 20.8484 26.2548 20.9716C26.0908 21.1163 25.8659 21.1377 25.6622 21.2395C25.4584 21.344 25.2547 21.6333 25.2547 22.0673C25.26 22.1986 25.252 22.279 25.2335 22.3433C25.2229 22.5522 25.2203 22.6835 25.2203 22.6835C25.2203 22.6835 25.342 23.013 25.6066 23.2193C25.6066 23.2193 25.3208 23.3426 25.1568 23.2809L25.0404 23.2863C25.043 23.5944 25.0748 23.9668 25.133 24.2695V24.2722ZM35.0946 24.4142H35.1184L35.1211 24.4088H35.1264H35.1317H35.1502L35.1528 24.4061H35.1581H35.1661H35.174H35.1819L35.2216 24.3981H35.2269H35.2322H35.2375H35.2401H35.2454H35.2481H35.2534H35.2613H35.2692H35.2772H35.2851H35.2931H35.2983H35.3036H35.3063H35.3116H35.3142H35.3195H35.3248H35.3275H35.3327H35.3354H35.3407H35.3486H35.3566H35.3645H35.3724H35.3804H35.3857H35.3909H35.3936H35.3989H35.4015H35.4068H35.4121H35.4148H35.4201H35.4227H35.428H35.4359H35.4439H35.4518L35.4597 24.3954H35.4677H35.4756H35.4809H35.4836H35.4888H35.4915H35.4968H35.5021H35.5047H35.51H35.5127H35.518H35.5232H35.5312H35.5391H35.5471H35.555H35.5629H35.5682H35.5709H35.5762H35.5788H35.5841H35.5894H35.592H35.5973H35.6L35.6238 24.3901C35.6106 24.2856 35.5815 24.1865 35.5206 24.0632C35.383 23.8221 35.3962 23.7096 35.4306 23.4524C35.4333 23.1336 35.2692 22.8121 35.1026 22.5549L35.0734 22.5121L35.0602 22.5603C34.9994 22.7666 35.0179 22.9889 35.0708 23.1979C35.1819 23.5355 35.1026 23.7096 35.0549 24.0284L35.0602 24.4838L35.0946 24.4142ZM24.2069 24.1409H24.2307C24.154 23.8864 24.0852 23.6265 24.0138 23.3667C24.0058 23.3667 24.0006 23.372 23.9926 23.3774L23.99 23.3801L23.9873 23.3827L23.9847 23.3881L23.982 23.3935L23.9715 23.4069C23.9715 23.4069 23.9635 23.4203 23.9609 23.4256V23.431L23.9582 23.439L23.9556 23.447L23.9529 23.4551L23.9503 23.4631L23.9476 23.4712L23.945 23.4792V23.4872V23.4953V23.5033V23.5113V23.5167L23.9423 23.5194V23.5247H23.9397V23.5301H23.9371V23.5381H23.9344V23.5462V23.5542H23.9318V23.5622H23.9291V23.5703H23.9265V23.5756V23.5783V23.5837V23.5864V23.5917V23.5971V23.6051V23.6131V23.6212V23.6292V23.6373V23.6453V23.6533V23.6614V23.6694V23.6774V23.6855V23.6908V23.6935V23.6989V23.7016V23.7069V23.7123V23.7203V23.7283V23.7364V23.7444V23.7525V23.7605V23.7659V23.7712V23.7766V23.7819V23.7873V23.7926V23.798V23.8034C23.99 23.948 23.7439 23.865 23.601 23.8864H23.5957H23.5904H23.5852H23.5799H23.5772H23.5746H23.5719H23.5693H23.5666H23.5613H23.5561H23.5508H23.5428H23.5375H23.5322H23.5269H23.5217H23.5164H23.5137H23.5111H23.5084H23.5058H23.5005H23.4978H23.4926H23.4873H23.474H23.4661H23.4582H23.4529H23.4105H23.4052H23.3999H23.392H23.3629H23.355H23.3523H23.347C23.302 23.8864 23.2624 23.8837 23.2306 23.8811H23.2147H23.1909L23.1856 23.8944L23.2068 23.9052L23.4185 24.0043H23.4211H23.4238H23.4264H23.4291H23.4343H23.4396H23.4449H23.4502H23.4555H23.4608H23.4661H23.4714H23.4767H23.4793H23.4846H23.4873H23.4926H23.4952H23.5005H23.5031H23.5111H23.5164H23.5243H23.5296H23.5375H23.5428H23.5508H23.5561H23.564H23.5693H23.5825H23.5904H23.5957H23.6037H23.609H23.6169L23.6539 24.0096H23.6619L23.6936 24.015H23.7016H23.7095H23.7201H23.728H23.7386H23.7466H23.7571H23.7624H23.773H23.7783H23.7889H23.7942H23.8074H23.8127H23.8259H23.8312L23.863 24.0204H23.8683H23.8815H23.8868H23.9027H23.908L23.9238 24.023H23.9291L23.945 24.0257H23.9503L23.9662 24.0284H23.9715L23.9873 24.0311H23.99L24.0085 24.0338H24.0111L24.0297 24.0364H24.0323L24.0508 24.0391H24.0535L24.072 24.0418H24.0746L24.0958 24.0445L24.117 24.0472L24.1381 24.0498L24.1593 24.0525L24.1831 24.0552L24.2069 24.0579L24.2307 24.0605L24.2546 24.0632L24.2069 24.1409Z" fill="#CCCCCC"/>
<path fill-rule="evenodd" clip-rule="evenodd" d="M45.8076 23.5515V21.7941C45.8076 21.7941 46.0722 21.4833 46.0722 21.194C46.0722 20.9448 45.8076 20.7198 45.8076 20.7198V19.975C45.8076 19.975 46.0113 19.6455 46.0113 19.3749C46.0113 19.0454 45.8076 18.756 45.8076 18.756V18.0943H46.0113V17.888H45.8076V17.4138C45.8076 17.4138 46.215 17.3093 45.9505 17.0843V16.878H46.0113V16.6717C46.0113 16.6717 45.8076 16.2779 45.6039 16.2779C45.4213 16.2779 45.2176 16.6717 45.2176 16.6717V16.9396H45.2784V17.0843C45.2784 17.0843 45.1355 17.1888 45.1567 17.2906C45.1567 17.3522 45.3393 17.4138 45.3393 17.4138V17.888H45.1567V18.0943H45.3393V18.756C45.3393 18.756 45.2572 18.9007 45.2176 19.0454C45.1567 19.19 45.1567 19.3749 45.1567 19.3749C45.1567 19.3749 45.1355 19.541 45.2176 19.7044C45.2784 19.8491 45.4213 19.9723 45.4213 19.9723V20.7171C45.4213 20.7171 45.1567 20.9448 45.1567 21.1913C45.1355 21.4806 45.3393 21.7914 45.3393 21.7914V23.5489H45.8076V23.5515ZM44.6037 23.5515H43.8073V23.1577H43.5427V23.0961H43.4819V22.9514H43.6036V22.6835H43.8073V22.5388C43.8073 22.5388 43.3178 22.2093 43.421 21.7941C43.5216 21.3815 44.2174 20.8644 44.2174 20.8644C44.2174 20.8644 44.8286 21.3601 44.953 21.7941C45.035 22.145 44.6064 22.4746 44.6064 22.4746V22.6808H44.8101V22.9487H44.953V23.0934H44.871V23.155H44.6064V23.5489L44.6037 23.5515Z" fill="#CCCCCC"/>
<path fill-rule="evenodd" clip-rule="evenodd" d="M37.5235 12.6424C37.5235 12.6826 37.5447 12.8085 37.5447 12.9934C37.5447 13.4381 37.4282 14.1159 36.8356 14.2633C36.7827 14.2767 36.7827 14.2767 36.7297 14.2874C36.5366 14.3142 36.3567 14.3142 36.1768 14.3142C34.9332 14.3142 33.7902 13.84 33.3007 13.6123C33.2187 13.6337 33.1367 13.6524 33.0361 13.6953C33.3616 13.8802 34.6898 14.5204 36.1794 14.5204C36.4043 14.5204 36.608 14.499 36.8329 14.4803C37.6293 14.3142 37.7299 13.4676 37.7299 12.9934C37.7299 12.8085 37.7299 12.6639 37.7087 12.621C37.6479 12.6424 37.587 12.6424 37.5261 12.6424" fill="#FF0000"/>
<path d="M29.0647 2.00125H29.8531L29.8478 2.41114H30.5305V1.88069H29.5488L29.062 1.38239V0.474192L29.5409 0H30.8162L31.3083 0.358993V1.05287L30.5225 1.04215V0.642972H29.8505V1.22433H30.8374L31.3269 1.65297V2.59064L30.8136 3.07823H29.5753L29.0647 2.57992V2.00393V2.00125ZM36.5524 4.02929L36.3037 3.46669L36.6159 2.76478L37.3144 3.10502L37.116 3.52831L37.5182 3.7212L38.2219 2.17271L37.9521 2.03876L38.2643 1.42258L39.3226 1.96106L39.103 2.50223L38.9125 2.41114L38.2458 4.15789L37.5843 4.47669L36.5577 4.02929H36.5524ZM23.9396 4.50884L22.7411 5.06608L22.4765 4.46598L22.6696 4.37757L21.9208 2.7112L21.733 2.79693L21.5107 2.3013L23.5269 1.37167L23.8814 2.17003L23.3602 2.40847L23.2676 2.20218L22.6643 2.46473L22.9051 3.00589L23.0533 2.9416L23.0903 2.79157L23.6195 2.53438L23.9476 3.3381L23.3523 3.63279L23.2358 3.52295L23.1565 3.56314L23.3919 4.09091L23.6883 3.95428L23.937 4.51152L23.9396 4.50884Z" fill="#FF0000"/>
<path fill-rule="evenodd" clip-rule="evenodd" d="M11.7502 45.0188C11.9142 44.8125 12.0756 44.5446 12.0756 44.5446C12.2582 43.8212 11.4221 42.9961 11.4221 42.9961C10.8109 42.5406 9.99335 43.347 9.74993 43.6149C9.50387 43.8641 9.42449 44.3383 9.60706 44.7508C9.81079 45.1634 10.0357 45.5572 10.5463 45.7019C11.057 45.8466 11.4856 45.2893 11.4856 45.2893C11.4856 45.2893 11.6285 45.1849 11.7502 45.0214M27.9534 45.083C27.9534 45.083 28.218 44.4829 28.5461 44.6892C28.8715 44.8955 28.5064 45.2063 28.4244 45.5572C28.3212 45.9082 27.3237 48.4908 29.1599 49.7526C29.1599 49.7526 31.0993 51.1377 34.3431 49.4847C34.3431 49.4847 35.9359 48.6998 36.0153 48.4104C36.0153 48.4104 36.0762 48.038 35.4226 47.9362C34.7506 47.813 34.1791 47.6255 33.8113 47.5853C33.4647 47.5451 32.8324 47.4808 32.7503 47.1915C32.6683 46.8807 32.7715 46.3851 33.6076 45.9725C33.9542 45.8064 34.7506 45.4769 35.8116 45.1661C37.3409 44.7107 39.2194 44.2767 39.2194 44.2767C39.2194 44.2767 39.3015 44.132 39.0157 44.0704C38.73 44.0302 37.0154 43.3685 36.69 43.264C36.3434 43.1595 35.6078 42.9532 35.2216 43.1407C34.8141 43.3068 34.5072 43.5533 34.2823 43.4703C34.0574 43.3872 34.322 43.0577 34.5469 42.7871C34.7718 42.538 35.5047 41.6726 37.2192 42.3317C38.9337 42.972 39.2406 43.3443 40.3413 43.5292C41.442 43.7141 42.1563 43.8587 42.4236 43.8802C42.4236 43.8802 42.5268 44.5204 42.0161 44.8098L40.6905 44.7482C40.6905 44.7482 40.2831 46.4413 43.4872 46.4413C46.6913 46.4413 49.8743 44.5392 49.8743 44.5392C49.8743 44.5392 50.0172 44.4347 49.6917 44.416C49.3451 44.3758 48.3053 43.8373 47.8132 43.7328C47.3237 43.6283 45.8341 43.2586 45.1594 43.6712C44.4662 44.0838 44.6487 43.7328 44.6911 43.6096C44.7122 43.4649 45.1197 41.8735 48.0169 42.7201C50.9141 43.5881 51.057 44.0007 52.9541 44.0007C52.9541 44.0007 52.79 44.8687 52.5466 44.9518C52.5466 44.9518 51.8111 44.8687 51.5465 44.8902C51.2819 44.9116 50.9141 44.8285 51.0782 45.284C51.2607 45.7394 52.1391 46.3583 53.0176 46.3797C53.896 46.3797 55.8327 46.586 56.0788 45.6992C56.3249 44.8098 55.9148 42.7871 55.8751 42.3933C55.8539 41.9807 55.5893 39.9768 55.6105 39.4169C55.6317 38.8596 55.4888 38.5917 55.4279 38.4658C55.3459 38.3426 55.2851 37.9916 55.5496 37.3915C55.8142 36.7914 55.8566 36.6896 55.8751 36.6467C55.9148 36.6253 55.9783 37.0191 56.2217 37.3299C56.4678 37.6406 56.9361 38.0318 56.69 38.5488C56.4254 39.0445 56.3434 38.9614 56.3434 39.149C56.3646 39.2722 56.608 41.7717 56.69 43.5292C56.7297 44.5204 56.608 45.367 56.608 45.367C56.608 45.367 56.5471 46.669 55.3433 47.1031C55.3433 47.1031 52.5466 48.1157 50.8744 46.5646C50.8744 46.5646 50.549 46.1707 50.6098 45.0777C50.6098 45.0777 50.4061 45.0161 50.2209 45.1607C50.0383 45.3054 46.3024 47.1647 44.3445 47.3924C42.3865 47.5987 40.7937 47.1432 40.3439 46.235C39.9153 45.3268 40.2222 44.8098 40.2222 44.8098C40.2222 44.8098 35.7745 45.5117 34.1606 46.5029C34.1606 46.5029 33.8537 46.586 34.1606 46.7092C34.4463 46.8137 36.6715 47.3093 36.5471 48.1131C36.4254 48.9382 36.0365 49.8705 34.6897 50.4278C34.0971 50.6555 30.4246 52.1852 28.2206 50.4894C26.4453 48.9409 27.956 45.075 27.956 45.075L27.9534 45.083ZM59.4205 47.312C59.4205 47.312 59.3994 43.9445 59.1559 42.2486C58.9919 41.2788 58.8093 39.5428 58.9522 38.4685C59.0554 37.7049 59.4814 37.3942 59.4814 37.3942C59.4814 37.3942 59.7671 41.5065 59.8703 42.5192C59.992 43.5533 60.2381 47.4567 59.4205 47.312ZM9.83195 39.0686L9.97483 38.8837C10.1997 38.6346 10.586 38.5944 10.8321 38.8221L11.0147 38.9882C11.2607 39.1945 11.3004 39.5883 11.0755 39.8348L10.9115 40.0196C10.7077 40.2688 10.3188 40.309 10.0754 40.0813L9.89281 39.9152C9.64674 39.7089 9.60706 39.3151 9.83195 39.0686ZM13.5679 49.4633L13.7108 49.2784C13.9357 49.0293 14.322 48.9891 14.568 49.2168L14.7506 49.3829C14.9967 49.5892 15.0152 49.983 14.8114 50.2295L14.6474 50.4144C14.4437 50.6635 14.0547 50.7037 13.8113 50.476L13.6288 50.3313C13.3642 50.1036 13.343 49.7124 13.5679 49.4633ZM15.2216 49.3374L15.3856 49.1525C15.6105 48.8846 15.9783 48.8632 16.2429 49.0909L16.4069 49.2356C16.6715 49.4633 16.6926 49.8357 16.4889 50.1036L16.3249 50.2884C16.1 50.5376 15.7322 50.5563 15.4676 50.3501L15.2851 50.184C15.039 49.9562 15.0205 49.5839 15.2242 49.3374H15.2216ZM19.6904 49.608L19.8544 49.4231C20.0793 49.1552 20.4471 49.1338 20.6905 49.3615L20.8731 49.5062C21.1377 49.7339 21.1589 50.1063 20.934 50.3742L20.7911 50.559C20.5662 50.8082 20.1984 50.8269 19.9338 50.6206L19.7513 50.4545C19.5052 50.2268 19.4867 49.8544 19.6904 49.608ZM30.9538 52.7049L31.1178 52.5201C31.3427 52.2709 31.7105 52.2308 31.9539 52.4585L32.1365 52.6246C32.4011 52.8309 32.4222 53.2247 32.1973 53.4712L32.0545 53.656C31.8296 53.9052 31.4618 53.9453 31.1972 53.7176L31.0147 53.5515C30.7686 53.3452 30.7501 52.9514 30.9538 52.7049ZM32.626 52.5603L32.79 52.3754C32.9937 52.1263 33.3827 52.1075 33.6261 52.3138L33.8087 52.4799C34.0547 52.7076 34.0944 53.08 33.8695 53.3265L33.7055 53.5113C33.5018 53.7792 33.1128 53.8007 32.8694 53.573L32.6868 53.4283C32.4408 53.2006 32.4011 52.8282 32.626 52.5603ZM38.8914 48.5953L39.0554 48.4104C39.2591 48.1425 39.6481 48.1211 39.8915 48.3488L40.0741 48.4935C40.3201 48.7212 40.3598 49.0936 40.1349 49.3615L39.9709 49.5463C39.7671 49.7955 39.3782 49.8142 39.1348 49.608L38.9522 49.4419C38.7088 49.2141 38.6665 48.8418 38.8914 48.5953ZM22.077 45.083C22.0161 46.1975 21.7092 46.6315 21.4234 46.7762C21.1165 46.9209 19.955 47.5826 18.423 47.3147C16.8726 47.0468 17.0366 46.0957 16.9546 46.0341C16.8514 45.9725 16.7905 46.0555 16.69 46.2404C16.5683 46.4253 15.4465 48.2229 11.0782 46.9236C11.0782 46.9236 10.4246 46.6128 9.87429 47.0468C9.79227 47.1298 8.85299 47.4594 7.69146 47.6657C6.20185 47.9148 4.30477 48.038 3.34432 47.9336C0.568825 47.5826 0.161364 45.8251 0.161364 45.8251C0.161364 45.8251 -0.0635335 45 0.0184879 44.2124C0.0793425 43.6337 0.425949 43.055 0.425949 43.055C0.425949 43.055 0.751389 42.27 1.01862 42.5165C1.28321 42.7844 1.07947 42.8889 0.875744 43.406C0.69318 43.923 0.0581755 45.8225 2.48707 46.6503C2.48707 46.6503 3.99785 47.0227 5.75205 46.9182C7.50625 46.795 9.6097 46.1734 9.6097 46.1734C9.6097 46.1734 7.8555 44.8928 9.95631 42.5165C9.95631 42.5165 11.4248 40.9037 12.282 42.5165C12.282 42.5165 13.4462 44.2927 11.7502 46.0288C11.7502 46.0288 11.647 46.1949 12.3429 46.2967C13.0361 46.4199 15.2612 46.6905 16.0153 45.7582C16.0153 45.7582 16.4836 44.9732 16.6874 44.1454C16.8911 43.2988 17.4414 43.6899 17.4229 43.7944C17.4229 43.7944 17.3832 44.1052 17.28 44.4133C17.1768 44.7026 17.116 45.5492 17.6875 45.9618C18.259 46.3744 18.7882 46.6235 19.8095 46.3744C20.8308 46.1064 21.4208 46.0636 21.4208 45.6296C21.3996 45.1741 21.1747 44.4508 21.0133 44.2043C20.8493 43.9552 20.7276 43.481 20.6059 43.3363C20.5027 43.1702 20.6059 42.7576 20.7487 42.5915C20.8916 42.4067 21.0345 42.0959 21.1562 42.2406C21.2594 42.4067 22.1563 43.9766 22.0743 45.0723L22.077 45.083Z" fill="#FF0000"/>
<path fill-rule="evenodd" clip-rule="evenodd" d="M27.8105 10.0598C27.8105 10.0598 27.7285 8.73638 27.8714 8.24076C28.0354 7.74513 28.0143 7.28969 28.0751 6.89855C28.136 6.48598 28.0354 5.84569 28.6863 5.80282C29.3187 5.78139 29.5436 6.25826 29.5436 6.34131C29.5647 6.44579 29.5224 6.59046 29.279 6.5476C29.0329 6.52616 28.6863 6.5476 28.6863 6.69227C28.6652 6.83693 28.6863 7.12627 28.7472 7.29237C28.808 7.47723 28.7869 7.788 28.6863 8.03715C28.5831 8.2863 28.4826 8.84354 28.4826 8.98821C28.4826 9.11145 28.4217 9.40078 28.2789 9.5267C28.1571 9.64994 27.8899 10.0652 27.8105 10.0652" fill="#FF0000"/>
<path fill-rule="evenodd" clip-rule="evenodd" d="M37.5234 12.629C37.5843 12.629 37.6425 12.621 37.7007 12.6023C37.706 12.6023 37.7113 12.5996 37.7166 12.5969C37.7166 12.6023 37.7219 12.6076 37.7245 12.613C37.7536 12.6719 37.7457 12.9237 37.7457 12.9934C37.7457 13.6444 37.5525 14.349 36.8302 14.499C36.6133 14.5205 36.3963 14.5392 36.1767 14.5392C35.1818 14.5392 33.9013 14.2097 33.0255 13.7114C33.0149 13.706 33.0096 13.7114 33.007 13.6926C33.0149 13.6792 33.0175 13.6819 33.0281 13.6766C33.1181 13.6417 33.2028 13.6176 33.2954 13.5935C33.2954 13.5935 33.3006 13.5935 33.3033 13.5935C33.3033 13.5935 33.3086 13.5935 33.3086 13.5962C34.1897 14.0061 35.203 14.2981 36.1767 14.2981C36.3619 14.2981 36.5418 14.2981 36.7244 14.2713C36.7614 14.2659 36.7932 14.2579 36.8276 14.2472C37.3806 14.1106 37.5234 13.4944 37.5234 12.9961C37.5234 12.8755 37.5023 12.7576 37.5023 12.6451V12.6317H37.5208" fill="black"/>
<path d="M14.6792 59.9223V57.3156H15.2057V59.4776H16.5075V59.9223H14.6792ZM12.2476 59.9223V57.2942H14.1685V57.7389H12.7715V58.3229H14.0706V58.7676H12.7715V59.4803H14.2188V59.925H12.245L12.2476 59.9223Z" fill="white"/>
</g>
<defs>
<clipPath id="clip0_1137_2394">
<rect width="60" height="60" fill="white"/>
</clipPath>
</defs>
</svg>
