<svg width="16" height="16" viewBox="0 0 16 16" fill="none" xmlns="http://www.w3.org/2000/svg">
<mask id="mask0_1760_6773" style="mask-type:alpha" maskUnits="userSpaceOnUse" x="0" y="0" width="16" height="16">
<rect width="16" height="16" fill="#D9D9D9"/>
</mask>
<g mask="url(#mask0_1760_6773)">
<path d="M10.6664 10.6663C11.222 10.6663 11.6942 10.8608 12.0831 11.2497C12.472 11.6386 12.6664 12.1108 12.6664 12.6663C12.6664 13.2219 12.472 13.6941 12.0831 14.083C11.6942 14.4719 11.222 14.6663 10.6664 14.6663C10.2442 14.6663 9.86367 14.5441 9.52478 14.2997C9.18589 14.0552 8.94423 13.733 8.79978 13.333H4.56645L3.89978 14.3663C3.79978 14.5219 3.65811 14.6191 3.47478 14.658C3.29145 14.6969 3.122 14.6663 2.96645 14.5663C2.81089 14.4663 2.71367 14.3247 2.67478 14.1413C2.63589 13.958 2.66645 13.7886 2.76645 13.633L5.39978 9.59968C4.59978 9.23301 3.94423 8.66912 3.43311 7.90801C2.922 7.1469 2.66645 6.28856 2.66645 5.33301H11.9998C11.9998 6.28856 11.7442 7.1469 11.2331 7.90801C10.722 8.66912 10.0664 9.23301 9.26645 9.59968L9.64978 10.1997C9.41645 10.3108 9.22478 10.4219 9.07478 10.533C8.92478 10.6441 8.76089 10.7997 8.58311 10.9997L7.91645 9.96634C7.82756 9.98856 7.73311 9.99967 7.63311 9.99967H7.03311C6.93311 9.99967 6.83867 9.98856 6.74978 9.96634L5.43311 11.9997H8.79978C8.94423 11.5997 9.18589 11.2775 9.52478 11.033C9.86367 10.7886 10.2442 10.6663 10.6664 10.6663ZM11.1414 13.1413C11.2692 13.0136 11.3331 12.8552 11.3331 12.6663C11.3331 12.4775 11.2692 12.3191 11.1414 12.1913C11.0137 12.0636 10.8553 11.9997 10.6664 11.9997C10.4776 11.9997 10.3192 12.0636 10.1914 12.1913C10.0637 12.3191 9.99978 12.4775 9.99978 12.6663C9.99978 12.8552 10.0637 13.0136 10.1914 13.1413C10.3192 13.2691 10.4776 13.333 10.6664 13.333C10.8553 13.333 11.0137 13.2691 11.1414 13.1413ZM5.59978 4.66634C5.65534 4.34412 5.647 4.0719 5.57478 3.84967C5.50256 3.62745 5.34978 3.3719 5.11645 3.08301C4.89423 2.79412 4.747 2.51912 4.67478 2.25801C4.60256 1.9969 4.59423 1.68856 4.64978 1.33301H5.31645C5.26089 1.65523 5.26923 1.92467 5.34145 2.14134C5.41367 2.35801 5.56645 2.61079 5.79978 2.89967C6.03311 3.18856 6.18311 3.46356 6.24978 3.72467C6.31645 3.98579 6.322 4.29967 6.26645 4.66634H5.59978ZM7.26645 4.66634C7.322 4.34412 7.31645 4.0719 7.24978 3.84967C7.18311 3.62745 7.03311 3.3719 6.79978 3.08301C6.56645 2.80523 6.41367 2.53579 6.34145 2.27467C6.26923 2.01356 6.26089 1.69967 6.31645 1.33301H6.98311C6.92756 1.65523 6.93589 1.92467 7.00811 2.14134C7.08034 2.35801 7.23311 2.61079 7.46645 2.89967C7.68867 3.17745 7.83589 3.4469 7.90811 3.70801C7.98034 3.96912 7.98867 4.28856 7.93311 4.66634H7.26645ZM8.93311 4.66634C8.98867 4.34412 8.98311 4.0719 8.91645 3.84967C8.84978 3.62745 8.69978 3.3719 8.46645 3.08301C8.23311 2.80523 8.08034 2.53579 8.00811 2.27467C7.93589 2.01356 7.92756 1.69967 7.98311 1.33301H8.64978C8.59423 1.65523 8.60256 1.92467 8.67478 2.14134C8.747 2.35801 8.89978 2.61079 9.13311 2.89967C9.35534 3.17745 9.50256 3.4469 9.57478 3.70801C9.647 3.96912 9.65534 4.28856 9.59978 4.66634H8.93311Z" fill="#F5BE4B"/>
</g>
</svg>
