<svg width="16" height="16" viewBox="0 0 16 16" fill="none" xmlns="http://www.w3.org/2000/svg">
<mask id="mask0_1760_6781" style="mask-type:alpha" maskUnits="userSpaceOnUse" x="0" y="0" width="16" height="16">
<rect width="16" height="16" fill="#D9D9D9"/>
</mask>
<g mask="url(#mask0_1760_6781)">
<path d="M5.33333 3.33301V2.66634C5.33333 2.29967 5.46389 1.98579 5.725 1.72467C5.98611 1.46356 6.3 1.33301 6.66667 1.33301H9.33333C9.7 1.33301 10.0139 1.46356 10.275 1.72467C10.5361 1.98579 10.6667 2.29967 10.6667 2.66634V3.33301H12.6667C13.0333 3.33301 13.3472 3.46356 13.6083 3.72467C13.8694 3.98579 14 4.29967 14 4.66634V5.33301H2V4.66634C2 4.29967 2.13056 3.98579 2.39167 3.72467C2.65278 3.46356 2.96667 3.33301 3.33333 3.33301H5.33333ZM3.33333 13.9997C2.96667 13.9997 2.65278 13.8691 2.39167 13.608C2.13056 13.3469 2 13.033 2 12.6663V6.66634H4.66667V7.99967C4.66667 8.36634 4.79722 8.68023 5.05833 8.94134C5.31944 9.20245 5.63333 9.33301 6 9.33301H10C10.3667 9.33301 10.6806 9.20245 10.9417 8.94134C11.2028 8.68023 11.3333 8.36634 11.3333 7.99967V6.66634H14V12.6663C14 13.033 13.8694 13.3469 13.6083 13.608C13.3472 13.8691 13.0333 13.9997 12.6667 13.9997H3.33333ZM5.80833 11.808C5.93611 11.6802 6 11.5219 6 11.333C6 11.1441 5.93611 10.9858 5.80833 10.858C5.68056 10.7302 5.52222 10.6663 5.33333 10.6663C5.14444 10.6663 4.98611 10.7302 4.85833 10.858C4.73056 10.9858 4.66667 11.1441 4.66667 11.333C4.66667 11.5219 4.73056 11.6802 4.85833 11.808C4.98611 11.9358 5.14444 11.9997 5.33333 11.9997C5.52222 11.9997 5.68056 11.9358 5.80833 11.808ZM8.475 11.808C8.60278 11.6802 8.66667 11.5219 8.66667 11.333C8.66667 11.1441 8.60278 10.9858 8.475 10.858C8.34722 10.7302 8.18889 10.6663 8 10.6663C7.81111 10.6663 7.65278 10.7302 7.525 10.858C7.39722 10.9858 7.33333 11.1441 7.33333 11.333C7.33333 11.5219 7.39722 11.6802 7.525 11.808C7.65278 11.9358 7.81111 11.9997 8 11.9997C8.18889 11.9997 8.34722 11.9358 8.475 11.808ZM11.1417 11.808C11.2694 11.6802 11.3333 11.5219 11.3333 11.333C11.3333 11.1441 11.2694 10.9858 11.1417 10.858C11.0139 10.7302 10.8556 10.6663 10.6667 10.6663C10.4778 10.6663 10.3194 10.7302 10.1917 10.858C10.0639 10.9858 10 11.1441 10 11.333C10 11.5219 10.0639 11.6802 10.1917 11.808C10.3194 11.9358 10.4778 11.9997 10.6667 11.9997C10.8556 11.9997 11.0139 11.9358 11.1417 11.808ZM6 7.99967V6.66634H10V7.99967H6ZM6.66667 3.33301H9.33333V2.66634H6.66667V3.33301Z" fill="#F5BE4B"/>
</g>
</svg>
