<svg width="16" height="16" viewBox="0 0 16 16" fill="none" xmlns="http://www.w3.org/2000/svg">
<mask id="mask0_1760_6769" style="mask-type:alpha" maskUnits="userSpaceOnUse" x="0" y="0" width="16" height="16">
<rect width="16" height="16" fill="#D9D9D9"/>
</mask>
<g mask="url(#mask0_1760_6769)">
<path d="M2 6V3.33333C2 2.96667 2.13056 2.65278 2.39167 2.39167C2.65278 2.13056 2.96667 2 3.33333 2H12.6667C13.0333 2 13.3472 2.13056 13.6083 2.39167C13.8694 2.65278 14 2.96667 14 3.33333V6H2ZM3.33333 14C2.96667 14 2.65278 13.8694 2.39167 13.6083C2.13056 13.3472 2 13.0333 2 12.6667V6.66667H14V12.6667C14 13.0333 13.8694 13.3472 13.6083 13.6083C13.3472 13.8694 13.0333 14 12.6667 14H3.33333ZM5.80833 4.475C5.93611 4.34722 6 4.18889 6 4C6 3.81111 5.93611 3.65278 5.80833 3.525C5.68056 3.39722 5.52222 3.33333 5.33333 3.33333C5.14444 3.33333 4.98611 3.39722 4.85833 3.525C4.73056 3.65278 4.66667 3.81111 4.66667 4C4.66667 4.18889 4.73056 4.34722 4.85833 4.475C4.98611 4.60278 5.14444 4.66667 5.33333 4.66667C5.52222 4.66667 5.68056 4.60278 5.80833 4.475ZM6.66667 9.33333H9.33333V8H6.66667V9.33333ZM8.475 4.475C8.60278 4.34722 8.66667 4.18889 8.66667 4C8.66667 3.81111 8.60278 3.65278 8.475 3.525C8.34722 3.39722 8.18889 3.33333 8 3.33333C7.81111 3.33333 7.65278 3.39722 7.525 3.525C7.39722 3.65278 7.33333 3.81111 7.33333 4C7.33333 4.18889 7.39722 4.34722 7.525 4.475C7.65278 4.60278 7.81111 4.66667 8 4.66667C8.18889 4.66667 8.34722 4.60278 8.475 4.475ZM11.1417 4.475C11.2694 4.34722 11.3333 4.18889 11.3333 4C11.3333 3.81111 11.2694 3.65278 11.1417 3.525C11.0139 3.39722 10.8556 3.33333 10.6667 3.33333C10.4778 3.33333 10.3194 3.39722 10.1917 3.525C10.0639 3.65278 10 3.81111 10 4C10 4.18889 10.0639 4.34722 10.1917 4.475C10.3194 4.60278 10.4778 4.66667 10.6667 4.66667C10.8556 4.66667 11.0139 4.60278 11.1417 4.475Z" fill="#F5BE4B"/>
</g>
</svg>
