<svg width="28" height="28" viewBox="0 0 28 28" fill="none" xmlns="http://www.w3.org/2000/svg">
<rect x="0.5" y="0.5" width="27" height="27" rx="13.5" stroke="#666666"/>
<path d="M12.26 14.85L14 13.5929L15.7325 14.85L15.0725 12.8143L16.8125 11.5H14.6825L14 9.49286L13.3175 11.5H11.1875L12.92 12.8143L12.26 14.85ZM20 12.2143C20 9.05714 17.315 6.5 14 6.5C10.685 6.5 8 9.05714 8 12.2143C8 13.6643 8.57 14.9786 9.5 15.9857V21.5L14 20.0714L18.5 21.5V15.9857C19.43 14.9786 20 13.6643 20 12.2143ZM14 7.92857C16.4825 7.92857 18.5 9.85 18.5 12.2143C18.5 14.5786 16.4825 16.5 14 16.5C11.5175 16.5 9.5 14.5786 9.5 12.2143C9.5 9.85 11.5175 7.92857 14 7.92857Z" fill="#666666"/>
</svg>
