<svg width="28" height="28" viewBox="0 0 28 28" fill="none" xmlns="http://www.w3.org/2000/svg">
<rect x="0.5" y="0.5" width="27" height="27" rx="13.5" stroke="#666666"/>
<path d="M14 15.3889C13.8032 15.3889 13.6383 15.3223 13.5052 15.1892C13.3721 15.0561 13.3056 14.8912 13.3056 14.6944C13.3056 14.4977 13.3721 14.3327 13.5052 14.1996C13.6383 14.0665 13.8032 14 14 14C14.1968 14 14.3617 14.0665 14.4948 14.1996C14.6279 14.3327 14.6944 14.4977 14.6944 14.6944C14.6944 14.8912 14.6279 15.0561 14.4948 15.1892C14.3617 15.3223 14.1968 15.3889 14 15.3889ZM10.7274 15.1892C10.5943 15.0561 10.5278 14.8912 10.5278 14.6944C10.5278 14.4977 10.5943 14.3327 10.7274 14.1996C10.8605 14.0665 11.0255 14 11.2222 14C11.419 14 11.5839 14.0665 11.717 14.1996C11.8501 14.3327 11.9167 14.4977 11.9167 14.6944C11.9167 14.8912 11.8501 15.0561 11.717 15.1892C11.5839 15.3223 11.419 15.3889 11.2222 15.3889C11.0255 15.3889 10.8605 15.3223 10.7274 15.1892ZM16.7778 15.3889C16.581 15.3889 16.4161 15.3223 16.283 15.1892C16.1499 15.0561 16.0833 14.8912 16.0833 14.6944C16.0833 14.4977 16.1499 14.3327 16.283 14.1996C16.4161 14.0665 16.581 14 16.7778 14C16.9745 14 17.1395 14.0665 17.2726 14.1996C17.4057 14.3327 17.4722 14.4977 17.4722 14.6944C17.4722 14.8912 17.4057 15.0561 17.2726 15.1892C17.1395 15.3223 16.9745 15.3889 16.7778 15.3889ZM14 18.1667C13.8032 18.1667 13.6383 18.1001 13.5052 17.967C13.3721 17.8339 13.3056 17.669 13.3056 17.4722C13.3056 17.2754 13.3721 17.1105 13.5052 16.9774C13.6383 16.8443 13.8032 16.7778 14 16.7778C14.1968 16.7778 14.3617 16.8443 14.4948 16.9774C14.6279 17.1105 14.6944 17.2754 14.6944 17.4722C14.6944 17.669 14.6279 17.8339 14.4948 17.967C14.3617 18.1001 14.1968 18.1667 14 18.1667ZM10.7274 17.967C10.5943 17.8339 10.5278 17.669 10.5278 17.4722C10.5278 17.2754 10.5943 17.1105 10.7274 16.9774C10.8605 16.8443 11.0255 16.7778 11.2222 16.7778C11.419 16.7778 11.5839 16.8443 11.717 16.9774C11.8501 17.1105 11.9167 17.2754 11.9167 17.4722C11.9167 17.669 11.8501 17.8339 11.717 17.967C11.5839 18.1001 11.419 18.1667 11.2222 18.1667C11.0255 18.1667 10.8605 18.1001 10.7274 17.967ZM16.7778 18.1667C16.581 18.1667 16.4161 18.1001 16.283 17.967C16.1499 17.8339 16.0833 17.669 16.0833 17.4722C16.0833 17.2754 16.1499 17.1105 16.283 16.9774C16.4161 16.8443 16.581 16.7778 16.7778 16.7778C16.9745 16.7778 17.1395 16.8443 17.2726 16.9774C17.4057 17.1105 17.4722 17.2754 17.4722 17.4722C17.4722 17.669 17.4057 17.8339 17.2726 17.967C17.1395 18.1001 16.9745 18.1667 16.7778 18.1667ZM9.13889 20.9444C8.75694 20.9444 8.42998 20.8084 8.15799 20.5364C7.886 20.2645 7.75 19.9375 7.75 19.5555V9.83332C7.75 9.45138 7.886 9.12441 8.15799 8.85242C8.42998 8.58043 8.75694 8.44443 9.13889 8.44443H9.83333V7.05554H11.2222V8.44443H16.7778V7.05554H18.1667V8.44443H18.8611C19.2431 8.44443 19.57 8.58043 19.842 8.85242C20.114 9.12441 20.25 9.45138 20.25 9.83332V19.5555C20.25 19.9375 20.114 20.2645 19.842 20.5364C19.57 20.8084 19.2431 20.9444 18.8611 20.9444H9.13889ZM9.13889 19.5555H18.8611V12.6111H9.13889V19.5555Z" fill="#666666"/>
</svg>
