<svg width="28" height="28" viewBox="0 0 28 28" fill="none" xmlns="http://www.w3.org/2000/svg">
<rect x="0.5" y="0.5" width="27" height="27" rx="13.5" stroke="#666666"/>
<path d="M19.7417 20.5C18.237 20.5 16.7505 20.172 15.2819 19.516C13.8134 18.86 12.4773 17.9301 11.2736 16.7264C10.0699 15.5227 9.14005 14.1866 8.48403 12.7181C7.82801 11.2495 7.5 9.76296 7.5 8.25833C7.5 8.04167 7.57222 7.86111 7.71667 7.71667C7.86111 7.57222 8.04167 7.5 8.25833 7.5H11.1833C11.3519 7.5 11.5023 7.55718 11.6347 7.67153C11.7671 7.78588 11.8454 7.9213 11.8694 8.07778L12.3389 10.6056C12.363 10.7981 12.3569 10.9606 12.3208 11.0931C12.2847 11.2255 12.2185 11.3398 12.1222 11.4361L10.3708 13.2056C10.6116 13.6509 10.8975 14.0812 11.2285 14.4965C11.5595 14.9118 11.9236 15.312 12.3208 15.6972C12.694 16.0704 13.0852 16.4164 13.4944 16.7354C13.9037 17.0544 14.337 17.3463 14.7944 17.6111L16.4917 15.9139C16.6 15.8056 16.7414 15.7243 16.916 15.6701C17.0905 15.616 17.262 15.6009 17.4306 15.625L19.9222 16.1306C20.0907 16.1787 20.2292 16.266 20.3375 16.3924C20.4458 16.5188 20.5 16.6602 20.5 16.8167V19.7417C20.5 19.9583 20.4278 20.1389 20.2833 20.2833C20.1389 20.4278 19.9583 20.5 19.7417 20.5Z" fill="#666666"/>
</svg>
