<svg width="16" height="16" viewBox="0 0 16 16" fill="none" xmlns="http://www.w3.org/2000/svg">
<path d="M3.67339 15.53C3.35977 15.2167 3.20296 14.84 3.20296 14.4C3.20296 13.96 3.35977 13.5833 3.67339 13.27C3.98702 12.9567 4.36403 12.8 4.80444 12.8C5.24485 12.8 5.62186 12.9567 5.93548 13.27C6.24911 13.5833 6.40592 13.96 6.40592 14.4C6.40592 14.84 6.24911 15.2167 5.93548 15.53C5.62186 15.8433 5.24485 16 4.80444 16C4.36403 16 3.98702 15.8433 3.67339 15.53ZM11.6808 15.53C11.3672 15.2167 11.2104 14.84 11.2104 14.4C11.2104 13.96 11.3672 13.5833 11.6808 13.27C11.9944 12.9567 12.3714 12.8 12.8118 12.8C13.2522 12.8 13.6293 12.9567 13.9429 13.27C14.2565 13.5833 14.4133 13.96 14.4133 14.4C14.4133 14.84 14.2565 15.2167 13.9429 15.53C13.6293 15.8433 13.2522 16 12.8118 16C12.3714 16 11.9944 15.8433 11.6808 15.53ZM3.36311 1.6H15.174C15.481 1.6 15.7145 1.73667 15.8747 2.01C16.0348 2.28333 16.0415 2.56 15.8947 2.84L13.0521 7.96C12.9053 8.22667 12.7084 8.43333 12.4615 8.58C12.2146 8.72667 11.9444 8.8 11.6508 8.8H5.68525L4.80444 10.4H14.4133V12H4.80444C4.20388 12 3.75013 11.7367 3.44318 11.21C3.13623 10.6833 3.12289 10.16 3.40314 9.64L4.48414 7.68L1.60148 1.6H0V0H2.6024L3.36311 1.6Z" fill="white"/>
</svg>
