<svg width="24" height="24" viewBox="0 0 24 24" fill="none" xmlns="http://www.w3.org/2000/svg">
<rect width="24" height="24" rx="12" fill="#AA1E1E"/>
<path d="M9.95114 17.3154C9.31433 17.0383 8.76017 16.664 8.28864 16.1925C7.81711 15.721 7.44281 15.1668 7.16572 14.53C6.88864 13.8932 6.7501 13.2102 6.7501 12.4811C6.7501 11.7519 6.88864 11.0689 7.16572 10.4321C7.44281 9.79529 7.81711 9.24112 8.28864 8.7696C8.76017 8.29807 9.31433 7.92376 9.95114 7.64668C10.5879 7.3696 11.2709 7.23105 12.0001 7.23105C12.7293 7.23105 13.4123 7.3696 14.0491 7.64668C14.6859 7.92376 15.24 8.29807 15.7116 8.7696C16.1831 9.24112 16.5574 9.79529 16.8345 10.4321C17.1116 11.0689 17.2501 11.7519 17.2501 12.4811C17.2501 13.2102 17.1116 13.8932 16.8345 14.53C16.5574 15.1668 16.1831 15.721 15.7116 16.1925C15.24 16.664 14.6859 17.0383 14.0491 17.3154C13.4123 17.5925 12.7293 17.7311 12.0001 17.7311C11.2709 17.7311 10.5879 17.5925 9.95114 17.3154ZM13.6334 14.9311L14.4501 14.1144L12.5834 12.2477V9.56439H11.4168V12.7144L13.6334 14.9311ZM8.26676 6.26855L9.08343 7.08522L6.60426 9.56439L5.7876 8.74772L8.26676 6.26855ZM15.7334 6.26855L18.2126 8.74772L17.3959 9.56439L14.9168 7.08522L15.7334 6.26855ZM12.0001 16.5644C13.1376 16.5644 14.1025 16.1682 14.8949 15.3758C15.6873 14.5835 16.0834 13.6186 16.0834 12.4811C16.0834 11.3436 15.6873 10.3786 14.8949 9.58626C14.1025 8.7939 13.1376 8.39772 12.0001 8.39772C10.8626 8.39772 9.89767 8.7939 9.10531 9.58626C8.31294 10.3786 7.91676 11.3436 7.91676 12.4811C7.91676 13.6186 8.31294 14.5835 9.10531 15.3758C9.89767 16.1682 10.8626 16.5644 12.0001 16.5644Z" fill="white"/>
</svg>
