<svg width="16" height="16" viewBox="0 0 16 16" fill="none" xmlns="http://www.w3.org/2000/svg">
<mask id="mask0_1760_6777" style="mask-type:alpha" maskUnits="userSpaceOnUse" x="0" y="0" width="16" height="16">
<rect width="16" height="16" fill="#D9D9D9"/>
</mask>
<g mask="url(#mask0_1760_6777)">
<path d="M3.33325 13.3333C2.7777 13.3333 2.30547 13.1389 1.91659 12.75C1.5277 12.3611 1.33325 11.8889 1.33325 11.3333V8H10.6833C10.7388 7.62222 10.8888 7.29167 11.1333 7.00833C11.3777 6.725 11.6777 6.52222 12.0333 6.4L15.1166 5.36667L15.5333 6.63333L12.4499 7.66667C12.3166 7.71111 12.2083 7.79167 12.1249 7.90833C12.0416 8.025 11.9999 8.15556 11.9999 8.3V11.3333C11.9999 11.8889 11.8055 12.3611 11.4166 12.75C11.0277 13.1389 10.5555 13.3333 9.99992 13.3333H3.33325ZM2.94992 6.66667C3.10547 6.26667 3.13047 5.91111 3.02492 5.6C2.91936 5.28889 2.73881 4.97778 2.48325 4.66667C2.11659 4.22222 1.87492 3.80278 1.75825 3.40833C1.64159 3.01389 1.62214 2.54444 1.69992 2H2.99992C2.91103 2.42222 2.89714 2.76667 2.95825 3.03333C3.01936 3.3 3.1777 3.58889 3.43325 3.9C3.85547 4.41111 4.12492 4.86389 4.24159 5.25833C4.35825 5.65278 4.36103 6.12222 4.24992 6.66667H2.94992ZM5.61659 6.66667C5.77214 6.26667 5.79992 5.91111 5.69992 5.6C5.59992 5.28889 5.42214 4.97778 5.16659 4.66667C4.79992 4.22222 4.55547 3.80278 4.43325 3.40833C4.31103 3.01389 4.28881 2.54444 4.36659 2H5.66659C5.5777 2.42222 5.56381 2.76667 5.62492 3.03333C5.68603 3.3 5.84436 3.58889 6.09992 3.9C6.52214 4.41111 6.79159 4.86389 6.90825 5.25833C7.02492 5.65278 7.0277 6.12222 6.91659 6.66667H5.61659ZM8.28325 6.66667C8.43881 6.26667 8.46659 5.91111 8.36659 5.6C8.26659 5.28889 8.08881 4.97778 7.83325 4.66667C7.46659 4.22222 7.22214 3.80278 7.09992 3.40833C6.9777 3.01389 6.95548 2.54444 7.03325 2H8.33325C8.24436 2.42222 8.23047 2.76667 8.29159 3.03333C8.3527 3.3 8.51103 3.58889 8.76659 3.9C9.18881 4.41111 9.45825 4.86389 9.57492 5.25833C9.69159 5.65278 9.69436 6.12222 9.58325 6.66667H8.28325Z" fill="#F5BE4B"/>
</g>
</svg>
