<svg width="28" height="28" viewBox="0 0 28 28" fill="none" xmlns="http://www.w3.org/2000/svg">
<rect x="0.5" y="0.5" width="27" height="27" rx="13.5" stroke="#666666"/>
<path d="M8.4 19.5C8.015 19.5 7.68542 19.3654 7.41125 19.0961C7.13708 18.8268 7 18.5031 7 18.125V9.875C7 9.49687 7.13708 9.17318 7.41125 8.90391C7.68542 8.63464 8.015 8.5 8.4 8.5H19.6C19.985 8.5 20.3146 8.63464 20.5887 8.90391C20.8629 9.17318 21 9.49687 21 9.875V18.125C21 18.5031 20.8629 18.8268 20.5887 19.0961C20.3146 19.3654 19.985 19.5 19.6 19.5H8.4ZM8.4 14H19.6V11.25H8.4V14Z" fill="#666666"/>
</svg>
