<svg width="16" height="16" viewBox="0 0 16 16" fill="none" xmlns="http://www.w3.org/2000/svg">
<g clip-path="url(#clip0_808_5655)">
<path d="M12.9692 6.93721C12.7103 6.93721 12.5004 7.14709 12.5004 7.40597V14.2812C12.5004 14.712 12.1499 15.0625 11.7191 15.0625H1.7188C1.28801 15.0625 0.937529 14.712 0.937529 14.2812V4.28088C0.937529 3.85008 1.28801 3.4996 1.7188 3.4996H8.59402C8.8529 3.4996 9.06278 3.28972 9.06278 3.03084C9.06278 2.77195 8.8529 2.56207 8.59402 2.56207H1.7188C0.771055 2.56207 0 3.33313 0 4.28088V14.2812C0 15.2289 0.771055 16 1.7188 16H11.7191C12.6669 16 13.4379 15.2289 13.4379 14.2812V7.40597C13.4379 7.14709 13.228 6.93721 12.9692 6.93721Z" fill="#ECECEC"/>
<path d="M15.68 1.20379L14.796 0.319853C14.3696 -0.106597 13.6757 -0.106597 13.2492 0.319853L6.17794 7.39114C6.1125 7.45658 6.06791 7.53992 6.04972 7.63068L5.60774 9.84046C5.57702 9.99416 5.62511 10.153 5.73596 10.2639C5.82474 10.3526 5.94434 10.4012 6.06741 10.4012C6.098 10.4012 6.12875 10.3982 6.15932 10.3921L8.3691 9.95009C8.45986 9.93194 8.5432 9.88731 8.60864 9.82187L15.68 2.75062C15.68 2.75062 15.68 2.75062 15.68 2.75059C16.1064 2.32417 16.1064 1.63027 15.68 1.20379ZM8.04609 9.0586L6.66499 9.33485L6.94125 7.95375L12.6967 2.19816L13.8016 3.30307L8.04609 9.0586ZM15.017 2.08769L14.4646 2.64014L13.3597 1.53524L13.9121 0.982812C13.973 0.921872 14.0722 0.921841 14.1331 0.98278L15.017 1.86671C15.078 1.92762 15.078 2.02678 15.017 2.08769Z" fill="#ECECEC"/>
</g>
<defs>
<clipPath id="clip0_808_5655">
<rect width="16" height="16" fill="white"/>
</clipPath>
</defs>
</svg>
