<svg width="24" height="24" viewBox="0 0 24 24" fill="none" xmlns="http://www.w3.org/2000/svg">
<mask id="mask0_1137_2420" style="mask-type:alpha" maskUnits="userSpaceOnUse" x="0" y="0" width="24" height="24">
<rect width="24" height="24" fill="#D9D9D9"/>
</mask>
<g mask="url(#mask0_1137_2420)">
<path d="M3 19C2.45 19 1.97917 18.8041 1.5875 18.4125C1.19583 18.0208 1 17.55 1 17V6.99996C1 6.44996 1.19583 5.97913 1.5875 5.58746C1.97917 5.1958 2.45 4.99996 3 4.99996H13C13.55 4.99996 14.0208 5.1958 14.4125 5.58746C14.8042 5.97913 15 6.44996 15 6.99996V17C15 17.55 14.8042 18.0208 14.4125 18.4125C14.0208 18.8041 13.55 19 13 19H3ZM4 15H12L9.4 11.5L7.5 14L6.1 12.15L4 15ZM17 19V4.99996H19V19H17ZM21 19V4.99996H23V19H21Z" fill="#FA0209"/>
</g>
</svg>
