<svg width="16" height="16" viewBox="0 0 16 16" fill="none" xmlns="http://www.w3.org/2000/svg">
<mask id="mask0_frigideira_1" style="mask-type:alpha" maskUnits="userSpaceOnUse" x="0" y="0" width="16" height="16">
<rect width="16" height="16" fill="#D9D9D9"/>
</mask>
<g mask="url(#mask0_frigideira_1)">
<path d="M3.33333 10.6667C2.96667 10.6667 2.65278 10.5361 2.39167 10.275C2.13056 10.0139 2 9.7 2 9.33333V6.66667H9.33333C9.7 6.66667 10.0139 6.79722 10.275 7.05833C10.5361 7.31944 10.6667 7.63333 10.6667 8V8.33333H14C14.1889 8.33333 14.3472 8.39722 14.475 8.525C14.6028 8.65278 14.6667 8.81111 14.6667 9C14.6667 9.18889 14.6028 9.34722 14.475 9.475C14.3472 9.60278 14.1889 9.66667 14 9.66667H10.55C10.4167 9.96667 10.2056 10.2083 9.91667 10.3917C9.62778 10.575 9.3 10.6667 8.93333 10.6667H3.33333ZM3.33333 9.33333H8.93333C9.04444 9.33333 9.13889 9.29444 9.21667 9.21667C9.29444 9.13889 9.33333 9.04444 9.33333 8.93333V8H3.33333V9.33333ZM5.59999 5.66667C5.65555 5.34444 5.64722 5.07222 5.575 4.85C5.50277 4.62778 5.35 4.37222 5.11666 4.08333C4.89444 3.79444 4.74722 3.51944 4.675 3.25833C4.60277 2.99722 4.59444 2.68889 4.65 2.33333H5.31666C5.26111 2.65556 5.26944 2.925 5.34166 3.14167C5.41388 3.35833 5.56666 3.61111 5.8 3.9C6.03333 4.18889 6.18333 4.46389 6.25 4.725C6.31666 4.98611 6.32222 5.3 6.26666 5.66667H5.59999ZM8.26666 5.66667C8.32222 5.34444 8.31666 5.07222 8.25 4.85C8.18333 4.62778 8.03333 4.37222 7.8 4.08333C7.56666 3.80556 7.41388 3.53611 7.34166 3.275C7.26944 3.01389 7.26111 2.7 7.31666 2.33333H7.98333C7.92777 2.65556 7.93611 2.925 8.00833 3.14167C8.08055 3.35833 8.23333 3.61111 8.46666 3.9C8.68888 4.17778 8.83611 4.44722 8.90833 4.70833C8.98055 4.96944 8.98888 5.28889 8.93333 5.66667H8.26666Z" fill="#F5BE4B"/>
</g>
</svg>
