<svg width="18" height="16" viewBox="0 0 18 16" fill="none" xmlns="http://www.w3.org/2000/svg">
<path d="M7.785 15.5248L6.2325 14.099C4.6425 12.6355 3.2064 11.1833 1.9242 9.74212C0.6414 8.30159 0 6.71381 0 4.97878C0 3.56058 0.4725 2.37624 1.4175 1.42574C2.3625 0.475247 3.54 0 4.95 0C5.745 0 6.495 0.16958 7.2 0.508741C7.905 0.848505 8.505 1.31259 9 1.90099C9.495 1.31259 10.095 0.848505 10.8 0.508741C11.505 0.16958 12.255 0 13.05 0C14.46 0 15.6375 0.475247 16.5825 1.42574C17.5275 2.37624 18 3.56058 18 4.97878C18 6.71381 17.3625 8.30552 16.0875 9.75389C14.8125 11.2023 13.365 12.6582 11.745 14.1216L10.215 15.5248C9.87 15.8416 9.465 16 9 16C8.535 16 8.13 15.8416 7.785 15.5248Z" fill="#FA0209"/>
</svg>
