<svg width="24" height="24" viewBox="0 0 24 24" fill="none" xmlns="http://www.w3.org/2000/svg">
<rect width="24" height="24" rx="12" fill="#AA1E1E"/>
<path d="M9.47716 17.3446C8.82578 17.0189 8.50008 16.5984 8.50008 16.0832C8.50008 15.8498 8.57057 15.6335 8.71154 15.4342C8.85251 15.2349 9.04939 15.0623 9.30216 14.9165L10.2209 15.7769C10.1334 15.8158 10.0386 15.8596 9.93654 15.9082C9.83446 15.9568 9.75425 16.0151 9.69591 16.0832C9.8223 16.2387 10.114 16.3748 10.5709 16.4915C11.0279 16.6082 11.5042 16.6665 12.0001 16.6665C12.4959 16.6665 12.9747 16.6082 13.4365 16.4915C13.8983 16.3748 14.1924 16.2387 14.3188 16.0832C14.2508 16.0054 14.1633 15.9422 14.0563 15.8936C13.9494 15.845 13.8473 15.8012 13.7501 15.7623L14.6542 14.8873C14.9265 15.0429 15.1355 15.2203 15.2813 15.4196C15.4272 15.6189 15.5001 15.8401 15.5001 16.0832C15.5001 16.5984 15.1744 17.0189 14.523 17.3446C13.8716 17.6703 13.0306 17.8332 12.0001 17.8332C10.9695 17.8332 10.1286 17.6703 9.47716 17.3446ZM12.0147 14.6248C12.9772 13.9151 13.7015 13.203 14.1876 12.4884C14.6737 11.7738 14.9167 11.0568 14.9167 10.3373C14.9167 9.34567 14.6008 8.59706 13.9688 8.0915C13.3369 7.58595 12.6806 7.33317 12.0001 7.33317C11.3195 7.33317 10.6633 7.58595 10.0313 8.0915C9.39939 8.59706 9.08341 9.34567 9.08341 10.3373C9.08341 10.9887 9.32161 11.6669 9.798 12.3717C10.2744 13.0766 11.0133 13.8276 12.0147 14.6248ZM12.0001 16.0832C10.6292 15.0721 9.60598 14.0901 8.93029 13.1373C8.2546 12.1846 7.91675 11.2512 7.91675 10.3373C7.91675 9.64706 8.04071 9.04185 8.28862 8.52171C8.53654 8.00157 8.85494 7.5665 9.24383 7.2165C9.63272 6.8665 10.0702 6.604 10.5563 6.429C11.0424 6.254 11.5237 6.1665 12.0001 6.1665C12.4765 6.1665 12.9577 6.254 13.4438 6.429C13.9299 6.604 14.3674 6.8665 14.7563 7.2165C15.1452 7.5665 15.4636 8.00157 15.7115 8.52171C15.9595 9.04185 16.0834 9.64706 16.0834 10.3373C16.0834 11.2512 15.7456 12.1846 15.0699 13.1373C14.3942 14.0901 13.3709 15.0721 12.0001 16.0832ZM12.0001 11.4165C12.3209 11.4165 12.5956 11.3023 12.824 11.0738C13.0525 10.8453 13.1667 10.5707 13.1667 10.2498C13.1667 9.929 13.0525 9.65435 12.824 9.42588C12.5956 9.19741 12.3209 9.08317 12.0001 9.08317C11.6792 9.08317 11.4046 9.19741 11.1761 9.42588C10.9477 9.65435 10.8334 9.929 10.8334 10.2498C10.8334 10.5707 10.9477 10.8453 11.1761 11.0738C11.4046 11.3023 11.6792 11.4165 12.0001 11.4165Z" fill="white"/>
</svg>
