<svg width="24" height="24" viewBox="0 0 24 24" fill="none" xmlns="http://www.w3.org/2000/svg">
<rect width="24" height="24" rx="12" fill="#AA1E1E"/>
<path d="M7.2 16.5C6.87 16.5 6.5875 16.3898 6.3525 16.1695C6.1175 15.9492 6 15.6844 6 15.375V8.625C6 8.31563 6.1175 8.05078 6.3525 7.83047C6.5875 7.61016 6.87 7.5 7.2 7.5H16.8C17.13 7.5 17.4125 7.61016 17.6475 7.83047C17.8825 8.05078 18 8.31563 18 8.625V15.375C18 15.6844 17.8825 15.9492 17.6475 16.1695C17.4125 16.3898 17.13 16.5 16.8 16.5H7.2ZM12 12.5625L7.2 9.75V15.375H16.8V9.75L12 12.5625ZM12 11.4375L16.8 8.625H7.2L12 11.4375ZM7.2 9.75V8.625V15.375V9.75Z" fill="white"/>
</svg>
