<svg width="26" height="26" viewBox="0 0 26 26" fill="none" xmlns="http://www.w3.org/2000/svg">
<mask id="mask0_1465_2435" style="mask-type:alpha" maskUnits="userSpaceOnUse" x="0" y="0" width="26" height="26">
<rect width="26" height="26" fill="#AA1E1E"/>
</mask>
<g mask="url(#mask0_1465_2435)">
<path d="M8.67339 20.53C8.35977 20.2167 8.20296 19.84 8.20296 19.4C8.20296 18.96 8.35977 18.5833 8.67339 18.27C8.98702 17.9567 9.36403 17.8 9.80444 17.8C10.2448 17.8 10.6219 17.9567 10.9355 18.27C11.2491 18.5833 11.4059 18.96 11.4059 19.4C11.4059 19.84 11.2491 20.2167 10.9355 20.53C10.6219 20.8433 10.2448 21 9.80444 21C9.36403 21 8.98702 20.8433 8.67339 20.53ZM16.6808 20.53C16.3672 20.2167 16.2104 19.84 16.2104 19.4C16.2104 18.96 16.3672 18.5833 16.6808 18.27C16.9944 17.9567 17.3714 17.8 17.8118 17.8C18.2522 17.8 18.6293 17.9567 18.9429 18.27C19.2565 18.5833 19.4133 18.96 19.4133 19.4C19.4133 19.84 19.2565 20.2167 18.9429 20.53C18.6293 20.8433 18.2522 21 17.8118 21C17.3714 21 16.9944 20.8433 16.6808 20.53ZM8.36311 6.6H20.174C20.481 6.6 20.7145 6.73667 20.8747 7.01C21.0348 7.28333 21.0415 7.56 20.8947 7.84L18.0521 12.96C17.9053 13.2267 17.7084 13.4333 17.4615 13.58C17.2146 13.7267 16.9444 13.8 16.6508 13.8H10.6853L9.80444 15.4H19.4133V17H9.80444C9.20388 17 8.75013 16.7367 8.44318 16.21C8.13623 15.6833 8.12289 15.16 8.40314 14.64L9.48414 12.68L6.60148 6.6H5V5H7.6024L8.36311 6.6Z" fill="#FA0209"/>
</g>
</svg>
