<svg width="16" height="16" viewBox="0 0 16 16" fill="none" xmlns="http://www.w3.org/2000/svg">
<mask id="mask0_1902_2596" style="mask-type:alpha" maskUnits="userSpaceOnUse" x="0" y="0" width="16" height="16">
<rect width="16" height="16" fill="#D9D9D9"/>
</mask>
<g mask="url(#mask0_1902_2596)">
<path d="M5.0835 4.26668L6.95016 1.85001C7.0835 1.67223 7.24183 1.54168 7.42516 1.45834C7.6085 1.37501 7.80016 1.33334 8.00016 1.33334C8.20016 1.33334 8.39183 1.37501 8.57516 1.45834C8.7585 1.54168 8.91683 1.67223 9.05016 1.85001L10.9168 4.26668L13.7502 5.21668C14.0391 5.30557 14.2668 5.46945 14.4335 5.70834C14.6002 5.94723 14.6835 6.21112 14.6835 6.50001C14.6835 6.63334 14.6641 6.76668 14.6252 6.90001C14.5863 7.03334 14.5224 7.16112 14.4335 7.28334L12.6002 9.88334L12.6668 12.6167C12.6779 13.0056 12.5502 13.3333 12.2835 13.6C12.0168 13.8667 11.7057 14 11.3502 14C11.3279 14 11.2057 13.9833 10.9835 13.95L8.00016 13.1167L5.01683 13.95C4.96127 13.9722 4.90016 13.9861 4.8335 13.9917C4.76683 13.9972 4.70572 14 4.65016 14C4.29461 14 3.9835 13.8667 3.71683 13.6C3.45016 13.3333 3.32238 13.0056 3.3335 12.6167L3.40016 9.86668L1.5835 7.28334C1.49461 7.16112 1.43072 7.03334 1.39183 6.90001C1.35294 6.76668 1.3335 6.63334 1.3335 6.50001C1.3335 6.22223 1.41405 5.9639 1.57516 5.72501C1.73627 5.48612 1.96127 5.31668 2.25016 5.21668L5.0835 4.26668ZM5.90016 5.41668L2.66683 6.48334L4.7335 9.46668L4.66683 12.65L8.00016 11.7333L11.3335 12.6667L11.2668 9.46668L13.3335 6.51668L10.1002 5.41668L8.00016 2.66668L5.90016 5.41668Z" fill="#F5BE4B"/>
</g>
</svg>
