<svg width="28" height="28" viewBox="0 0 28 28" fill="none" xmlns="http://www.w3.org/2000/svg">
<rect x="0.5" y="0.5" width="27" height="27" rx="13.5" stroke="#666666"/>
<path d="M5 15.0766L5.4 13.4516H9.8L9.4 15.0766H5ZM8.5 19.7891C8.03333 19.3151 7.8 18.7396 7.8 18.0625H5.8L6.2 16.2953H10.34L11.06 13.3297H12.74L13.74 9.26719H8.2L8.32 8.77969C8.4 8.40052 8.58333 8.09245 8.87 7.85547C9.15667 7.61849 9.49333 7.5 9.88 7.5H19L18.26 10.75H20.6L23 14L22.2 18.0625H20.6C20.6 18.7396 20.3667 19.3151 19.9 19.7891C19.4333 20.263 18.8667 20.5 18.2 20.5C17.5333 20.5 16.9667 20.263 16.5 19.7891C16.0333 19.3151 15.8 18.7396 15.8 18.0625H12.6C12.6 18.7396 12.3667 19.3151 11.9 19.7891C11.4333 20.263 10.8667 20.5 10.2 20.5C9.53333 20.5 8.96667 20.263 8.5 19.7891ZM6.6 12.1109L7 10.4859H12.2L11.8 12.1109H6.6ZM10.2 18.875C10.4267 18.875 10.6167 18.7971 10.77 18.6414C10.9233 18.4857 11 18.2927 11 18.0625C11 17.8323 10.9233 17.6393 10.77 17.4836C10.6167 17.3279 10.4267 17.25 10.2 17.25C9.97333 17.25 9.78333 17.3279 9.63 17.4836C9.47667 17.6393 9.4 17.8323 9.4 18.0625C9.4 18.2927 9.47667 18.4857 9.63 18.6414C9.78333 18.7971 9.97333 18.875 10.2 18.875ZM18.2 18.875C18.4267 18.875 18.6167 18.7971 18.77 18.6414C18.9233 18.4857 19 18.2927 19 18.0625C19 17.8323 18.9233 17.6393 18.77 17.4836C18.6167 17.3279 18.4267 17.25 18.2 17.25C17.9733 17.25 17.7833 17.3279 17.63 17.4836C17.4767 17.6393 17.4 17.8323 17.4 18.0625C17.4 18.2927 17.4767 18.4857 17.63 18.6414C17.7833 18.7971 17.9733 18.875 18.2 18.875ZM17.34 14.8125H21.2L21.28 14.3859L19.8 12.375H17.9L17.34 14.8125Z" fill="#666666"/>
</svg>
